<?xml version="1.0" standalone="no"?>
<!DOCTYPE svg PUBLIC "-//W3C//DTD SVG 20010904//EN"
 "http://www.w3.org/TR/2001/REC-SVG-20010904/DTD/svg10.dtd">
<svg version="1.0" xmlns="http://www.w3.org/2000/svg"
 width="32pt" height="32pt" viewBox="0 0 958.000000 1052.000000"
 preserveAspectRatio="xMidYMid meet">

<g transform="translate(0.000000,1052.000000) scale(0.100000,-0.100000)"
fill="#000000" stroke="none">
<path d="M4586 10505 c-10 -11 -36 -15 -85 -15 -56 0 -71 -3 -71 -15 0 -12
-13 -15 -60 -15 -47 0 -60 -3 -60 -15 0 -11 -11 -15 -39 -15 -25 0 -41 -5 -45
-15 -3 -9 -18 -15 -36 -15 -20 0 -30 -5 -30 -15 0 -10 -10 -15 -30 -15 -16 0
-30 -4 -30 -10 0 -5 -11 -12 -25 -16 -14 -3 -25 -10 -25 -14 0 -5 -13 -11 -30
-15 -16 -4 -30 -10 -30 -15 0 -5 -13 -11 -30 -15 -16 -4 -30 -10 -30 -15 0 -4
-11 -11 -25 -14 -14 -4 -25 -11 -25 -16 0 -6 -7 -10 -15 -10 -9 0 -18 -7 -21
-15 -4 -8 -17 -15 -30 -15 -14 0 -27 -7 -30 -15 -4 -8 -17 -15 -30 -15 -14 0
-27 -7 -30 -15 -4 -8 -17 -15 -30 -15 -15 0 -24 -6 -24 -15 0 -10 -10 -15 -30
-15 -20 0 -30 -5 -30 -15 0 -10 -10 -15 -30 -15 -20 0 -30 -5 -30 -15 0 -8 -7
-15 -15 -15 -8 0 -15 -7 -15 -15 0 -10 -10 -15 -30 -15 -20 0 -30 -5 -30 -15
0 -10 -10 -15 -30 -15 -20 0 -30 -5 -30 -15 0 -9 -9 -15 -24 -15 -13 0 -26 -7
-30 -15 -3 -8 -12 -15 -21 -15 -8 0 -15 -4 -15 -10 0 -5 -11 -12 -25 -16 -14
-3 -25 -10 -25 -14 0 -5 -13 -11 -30 -15 -16 -4 -30 -10 -30 -15 0 -5 -13 -11
-30 -15 -17 -4 -30 -10 -30 -15 0 -5 -13 -11 -30 -15 -17 -4 -30 -10 -30 -15
0 -4 -11 -11 -25 -14 -14 -4 -25 -11 -25 -16 0 -6 -9 -10 -20 -10 -11 0 -20
-7 -20 -15 0 -9 -9 -15 -25 -15 -14 0 -28 -7 -31 -15 -4 -8 -17 -15 -30 -15
-15 0 -24 -6 -24 -15 0 -10 -10 -15 -30 -15 -20 0 -30 -5 -30 -15 0 -8 -9 -15
-20 -15 -11 0 -20 -4 -20 -10 0 -5 -11 -12 -24 -16 -14 -3 -27 -12 -30 -20 -3
-8 -17 -14 -31 -14 -16 0 -25 -6 -25 -15 0 -10 -10 -15 -30 -15 -20 0 -30 -5
-30 -15 0 -9 -9 -15 -24 -15 -13 0 -26 -7 -30 -15 -3 -8 -12 -15 -21 -15 -8 0
-15 -4 -15 -9 0 -5 -13 -12 -30 -16 -16 -4 -30 -11 -30 -16 0 -5 -11 -11 -25
-15 -14 -3 -25 -10 -25 -14 0 -5 -13 -11 -30 -15 -16 -4 -30 -10 -30 -15 0 -5
-13 -11 -30 -15 -17 -4 -30 -11 -30 -16 0 -5 -7 -9 -15 -9 -8 0 -15 -7 -15
-15 0 -10 -10 -15 -30 -15 -20 0 -30 -5 -30 -15 0 -9 -9 -15 -25 -15 -14 0
-28 -7 -31 -15 -4 -8 -17 -15 -30 -15 -15 0 -24 -6 -24 -15 0 -8 -7 -15 -16
-15 -8 0 -22 -7 -30 -15 -9 -8 -24 -15 -35 -15 -10 0 -19 -7 -19 -15 0 -9 -9
-15 -25 -15 -16 0 -25 -6 -25 -15 0 -10 -10 -15 -30 -15 -20 0 -30 -5 -30 -15
0 -9 -9 -15 -24 -15 -13 0 -26 -7 -30 -15 -3 -8 -12 -15 -21 -15 -8 0 -15 -4
-15 -9 0 -5 -14 -12 -30 -16 -17 -4 -30 -11 -30 -16 0 -5 -11 -11 -25 -15 -14
-3 -25 -10 -25 -15 0 -5 -7 -9 -15 -9 -9 0 -18 -7 -21 -15 -4 -8 -17 -15 -30
-15 -14 0 -27 -7 -30 -15 -4 -8 -17 -15 -30 -15 -15 0 -24 -6 -24 -15 0 -10
-10 -15 -30 -15 -20 0 -30 -5 -30 -15 0 -9 -9 -15 -25 -15 -14 0 -28 -6 -31
-14 -3 -8 -16 -17 -30 -20 -13 -4 -24 -11 -24 -16 0 -6 -9 -10 -20 -10 -11 0
-20 -7 -20 -15 0 -10 -10 -15 -30 -15 -20 0 -30 -5 -30 -15 0 -9 -9 -15 -24
-15 -13 0 -26 -7 -30 -15 -3 -8 -17 -15 -31 -15 -16 0 -25 -6 -25 -15 0 -8 -9
-15 -20 -15 -11 0 -20 -4 -20 -10 0 -5 -11 -12 -25 -16 -14 -3 -25 -10 -25
-14 0 -5 -14 -11 -30 -15 -17 -4 -30 -10 -30 -15 0 -5 -14 -11 -30 -15 -17 -4
-30 -10 -30 -15 0 -4 -11 -11 -25 -14 -14 -4 -25 -11 -25 -16 0 -6 -9 -10 -19
-10 -11 0 -26 -6 -33 -13 -7 -7 -21 -16 -30 -20 -10 -3 -18 -11 -18 -17 0 -5
-11 -10 -25 -10 -16 0 -25 -6 -25 -15 0 -8 -7 -15 -15 -15 -8 0 -15 -7 -15
-15 0 -10 -10 -15 -30 -15 -20 0 -30 -5 -30 -15 0 -8 -7 -15 -15 -15 -8 0 -15
-7 -15 -15 0 -8 -7 -15 -15 -15 -8 0 -15 -7 -15 -15 0 -8 -9 -15 -19 -15 -19
0 -181 -152 -181 -170 0 -5 -13 -22 -30 -38 -16 -17 -30 -35 -30 -41 0 -6 -7
-11 -15 -11 -8 0 -15 -9 -15 -19 0 -11 -7 -26 -15 -35 -8 -8 -15 -19 -15 -25
0 -6 -7 -11 -15 -11 -10 0 -15 -10 -15 -30 0 -20 -5 -30 -15 -30 -8 0 -15 -7
-15 -15 0 -8 -7 -15 -15 -15 -10 0 -15 -10 -15 -30 0 -20 -5 -30 -15 -30 -9 0
-15 -10 -15 -26 0 -14 -7 -32 -15 -40 -8 -9 -15 -28 -15 -44 0 -16 -7 -30 -15
-34 -8 -3 -15 -16 -15 -30 0 -13 -5 -26 -11 -28 -5 -2 -13 -22 -16 -46 -3 -23
-9 -42 -14 -42 -4 0 -11 -30 -15 -67 -3 -38 -12 -71 -18 -75 -8 -5 -11 -410
-11 -1496 0 -1404 1 -1489 17 -1506 10 -10 18 -21 18 -26 0 -18 71 -80 90 -80
11 0 20 -7 20 -15 0 -12 18 -15 105 -15 87 0 105 3 105 15 0 9 9 15 25 15 16
0 25 6 25 15 0 8 7 15 15 15 8 0 15 6 15 14 0 8 7 16 15 20 8 3 15 16 15 30 0
14 7 31 15 39 13 14 15 196 17 1458 2 1143 6 1443 16 1447 7 2 12 21 12 48 0
30 5 46 15 50 10 4 15 20 15 45 0 28 4 39 15 39 10 0 15 10 15 30 0 20 5 30
15 30 10 0 15 10 15 30 0 20 5 30 15 30 10 0 15 10 15 30 0 20 5 30 15 30 8 0
15 7 15 15 0 8 4 15 10 15 5 0 12 11 16 24 3 14 12 27 20 30 8 3 14 10 14 16
0 15 115 130 129 130 6 0 11 7 11 15 0 8 7 15 15 15 8 0 15 7 15 15 0 9 9 15
25 15 14 0 28 7 31 15 4 8 12 15 20 15 8 0 14 7 14 15 0 10 10 15 30 15 20 0
30 5 30 15 0 9 9 15 24 15 13 0 26 7 30 15 3 8 12 15 21 15 8 0 15 4 15 9 0 5
13 12 30 16 17 4 30 11 30 16 0 5 11 11 25 15 14 3 25 10 25 14 0 5 14 11 30
15 16 4 30 10 30 15 0 5 13 11 30 15 16 4 30 11 30 16 0 5 7 9 15 9 8 0 15 7
15 15 0 9 9 15 25 15 14 0 28 6 31 14 3 8 19 18 35 21 16 4 29 10 29 15 0 4
11 11 25 14 14 4 25 11 25 16 0 6 9 10 20 10 11 0 20 7 20 15 0 10 10 15 30
15 20 0 30 5 30 15 0 9 9 15 24 15 13 0 26 7 30 15 3 8 17 15 31 15 16 0 25 6
25 15 0 10 10 15 30 15 20 0 30 5 30 15 0 8 7 15 15 15 8 0 15 4 15 9 0 5 12
12 26 15 15 4 33 14 41 21 8 8 23 15 34 15 10 0 19 4 19 10 0 5 11 12 25 16
14 3 25 10 25 15 0 5 7 9 15 9 9 0 18 7 21 15 4 8 17 15 30 15 14 0 27 6 30
14 3 8 16 17 30 20 13 4 24 10 24 15 0 5 13 12 30 16 17 4 30 11 30 16 0 5 7
9 15 9 8 0 15 7 15 15 0 10 10 15 30 15 20 0 30 5 30 15 0 9 9 15 24 15 13 0
26 7 30 15 3 8 12 15 21 15 8 0 15 4 15 10 0 5 12 13 27 16 15 4 34 13 41 21
7 7 19 13 27 13 7 0 15 7 19 15 3 8 17 15 31 15 16 0 25 6 25 15 0 10 10 15
30 15 20 0 30 5 30 15 0 9 9 15 24 15 13 0 26 7 30 15 3 8 12 15 21 15 8 0 15
4 15 9 0 5 14 12 30 16 17 4 30 10 30 15 0 4 11 11 25 14 14 4 25 11 25 16 0
6 7 10 15 10 9 0 18 7 21 15 4 8 17 15 30 15 14 0 27 7 30 15 4 8 17 15 30 15
15 0 24 6 24 15 0 10 10 15 30 15 20 0 30 5 30 15 0 9 9 15 24 15 13 0 26 7
30 15 3 8 12 15 21 15 8 0 15 7 15 15 0 10 10 15 30 15 20 0 30 5 30 15 0 9 9
15 24 15 13 0 26 7 30 15 3 8 17 15 31 15 16 0 25 6 25 15 0 8 9 15 20 15 11
0 20 4 20 10 0 5 11 12 25 16 14 3 25 10 25 14 0 5 14 11 30 15 17 4 30 10 30
15 0 5 14 11 30 15 17 4 30 10 30 15 0 5 14 11 30 15 17 4 30 11 30 16 0 5 7
9 15 9 8 0 15 7 15 15 0 9 9 15 25 15 14 0 28 7 31 15 4 8 17 15 30 15 15 0
24 6 24 15 0 10 10 15 30 15 20 0 30 5 30 15 0 8 9 15 20 15 11 0 20 7 20 15
0 9 9 15 24 15 13 0 26 7 30 15 3 8 17 15 31 15 16 0 25 6 25 15 0 10 10 15
30 15 20 0 30 5 30 15 0 9 9 15 24 15 13 0 26 7 30 15 3 8 12 15 21 15 8 0 15
4 15 9 0 5 14 12 30 16 17 4 30 11 30 16 0 5 11 11 25 15 14 3 25 10 25 14 0
5 14 11 30 15 17 4 30 10 30 15 0 5 14 11 30 15 17 4 30 11 30 16 0 5 18 12
40 15 22 4 40 10 40 14 0 4 21 10 46 13 26 2 50 10 54 17 10 17 539 17 550 0
4 -6 27 -14 51 -17 24 -4 50 -12 57 -20 7 -7 27 -13 43 -13 16 0 29 -4 29 -9
0 -5 14 -12 30 -16 17 -4 30 -10 30 -15 0 -4 11 -11 25 -14 14 -4 25 -11 25
-16 0 -6 7 -10 15 -10 9 0 18 -7 21 -15 4 -8 17 -15 30 -15 14 0 27 -7 30 -15
4 -8 17 -15 30 -15 15 0 24 -6 24 -15 0 -8 9 -15 19 -15 11 0 26 -7 35 -15 8
-8 19 -15 25 -15 6 0 11 -7 11 -15 0 -10 10 -15 30 -15 20 0 30 -5 30 -15 0
-10 10 -15 30 -15 20 0 30 -5 30 -15 0 -9 9 -15 24 -15 13 0 26 -7 30 -15 3
-8 16 -15 30 -15 13 0 26 -7 30 -15 3 -8 12 -15 21 -15 8 0 15 -4 15 -10 0 -5
12 -13 27 -16 15 -4 34 -13 41 -21 7 -7 20 -13 28 -13 8 0 14 -4 14 -9 0 -5
14 -12 30 -16 17 -4 30 -10 30 -15 0 -4 11 -11 25 -14 14 -4 25 -11 25 -16 0
-6 7 -10 15 -10 9 0 18 -7 21 -15 4 -8 17 -15 30 -15 14 0 27 -6 30 -14 3 -8
16 -17 30 -20 13 -4 24 -11 24 -16 0 -6 9 -10 19 -10 10 0 21 -7 25 -15 3 -8
15 -15 26 -15 11 0 23 -7 26 -15 4 -8 17 -15 30 -15 15 0 24 -6 24 -15 0 -10
10 -15 30 -15 20 0 30 -5 30 -15 0 -9 9 -15 24 -15 13 0 26 -7 30 -15 3 -8 12
-15 21 -15 8 0 15 -4 15 -10 0 -5 12 -13 27 -16 15 -4 34 -13 41 -21 7 -7 19
-13 27 -13 7 0 15 -7 19 -15 3 -8 17 -15 31 -15 14 0 25 -4 25 -10 0 -5 7 -10
15 -10 9 0 18 -6 21 -14 3 -8 16 -17 30 -20 13 -4 24 -10 24 -15 0 -5 14 -12
30 -16 17 -4 30 -10 30 -15 0 -5 14 -11 30 -15 17 -4 30 -10 30 -15 0 -4 11
-11 25 -14 14 -4 25 -11 25 -16 0 -6 9 -10 20 -10 11 0 20 -7 20 -15 0 -9 9
-15 25 -15 14 0 28 -7 31 -15 4 -8 17 -15 30 -15 15 0 24 -6 24 -15 0 -10 10
-15 30 -15 20 0 30 -5 30 -15 0 -10 10 -15 30 -15 20 0 30 -5 30 -15 0 -8 7
-15 15 -15 8 0 15 -4 15 -9 0 -5 14 -12 30 -16 17 -4 30 -13 30 -21 0 -9 11
-14 30 -14 20 0 30 -5 30 -15 0 -9 9 -15 24 -15 13 0 26 -7 30 -15 3 -8 17
-15 31 -15 14 0 25 -4 25 -10 0 -5 23 -10 50 -10 28 0 50 4 50 9 0 5 18 11 40
15 22 3 40 11 40 16 0 6 7 10 15 10 8 0 15 7 15 15 0 8 7 15 15 15 8 0 15 7
15 15 0 8 7 15 15 15 10 0 15 10 15 30 0 20 5 30 15 30 12 0 15 16 15 85 0 67
-3 87 -15 91 -9 4 -15 19 -15 35 0 19 -5 29 -15 29 -8 0 -15 7 -15 15 0 8 -7
15 -15 15 -8 0 -15 7 -15 15 0 8 -7 15 -15 15 -8 0 -15 4 -15 9 0 5 -13 12
-30 16 -16 4 -30 10 -30 15 0 4 -11 11 -25 14 -14 4 -25 11 -25 16 0 6 -13 10
-30 10 -20 0 -30 5 -30 15 0 8 -7 15 -16 15 -8 0 -22 7 -30 15 -9 8 -24 15
-35 15 -10 0 -19 7 -19 15 0 9 -9 15 -25 15 -16 0 -25 6 -25 15 0 10 -10 15
-30 15 -18 0 -30 5 -30 13 0 7 -20 21 -45 32 -25 11 -45 23 -45 27 0 3 -13 9
-30 13 -16 4 -30 10 -30 15 0 4 -11 11 -25 14 -14 4 -25 10 -25 15 0 5 -13 12
-30 16 -16 4 -30 11 -30 16 0 5 -7 9 -15 9 -9 0 -18 7 -21 15 -4 8 -17 15 -30
15 -15 0 -24 6 -24 15 0 10 -10 15 -30 15 -19 0 -30 5 -30 14 0 8 -11 17 -25
20 -14 4 -25 11 -25 16 0 6 -9 10 -20 10 -11 0 -20 7 -20 15 0 10 -10 15 -30
15 -20 0 -30 5 -30 15 0 10 -10 15 -30 15 -20 0 -30 5 -30 15 0 9 -9 15 -25
15 -16 0 -25 6 -25 15 0 8 -9 15 -20 15 -11 0 -20 4 -20 10 0 5 -11 12 -25 16
-14 3 -25 10 -25 14 0 5 -13 11 -30 15 -16 4 -30 10 -30 15 0 5 -13 11 -30 15
-16 4 -30 12 -30 19 0 6 -20 20 -45 31 -25 11 -45 23 -45 27 0 3 -13 9 -30 13
-16 4 -30 10 -30 15 0 4 -11 11 -25 14 -14 4 -25 11 -25 16 0 6 -9 10 -19 10
-11 0 -26 7 -35 15 -8 8 -19 15 -25 15 -6 0 -11 7 -11 15 0 10 -10 15 -30 15
-20 0 -30 5 -30 15 0 10 -10 15 -30 15 -20 0 -30 5 -30 15 0 9 -9 15 -24 15
-13 0 -26 7 -30 15 -3 8 -12 15 -21 15 -8 0 -15 7 -15 15 0 10 -10 15 -30 15
-20 0 -30 5 -30 15 0 9 -9 15 -24 15 -13 0 -26 7 -30 15 -3 8 -15 15 -26 15
-12 0 -31 11 -43 24 -13 14 -35 28 -50 31 -15 4 -27 11 -27 15 0 5 -13 11 -30
15 -16 4 -30 10 -30 15 0 5 -13 11 -30 15 -16 4 -30 10 -30 15 0 5 -13 11 -30
15 -16 4 -30 11 -30 16 0 5 -11 9 -25 9 -16 0 -25 6 -25 15 0 10 -10 15 -30
15 -18 0 -33 6 -36 15 -4 10 -20 15 -45 15 -26 0 -42 5 -45 15 -5 11 -21 15
-60 15 -41 0 -54 4 -54 15 0 12 -16 15 -84 15 -65 0 -85 3 -90 15 -4 13 -36
15 -195 15 -155 0 -192 -3 -205 -15z"/>
<path d="M4668 9509 c-2 -5 -22 -13 -46 -16 -23 -3 -42 -9 -42 -14 0 -4 -13
-10 -30 -14 -16 -4 -30 -10 -30 -15 0 -5 -13 -11 -30 -15 -16 -4 -30 -10 -30
-15 0 -5 -13 -11 -30 -15 -16 -4 -30 -10 -30 -15 0 -4 -11 -11 -25 -14 -14 -4
-25 -11 -25 -16 0 -6 -9 -10 -20 -10 -11 0 -20 -7 -20 -15 0 -9 -9 -15 -25
-15 -14 0 -28 -7 -31 -15 -4 -8 -17 -15 -30 -15 -15 0 -24 -6 -24 -15 0 -10
-10 -15 -30 -15 -20 0 -30 -5 -30 -15 0 -8 -9 -15 -20 -15 -11 0 -20 -7 -20
-15 0 -9 -9 -15 -24 -15 -13 0 -26 -7 -30 -15 -3 -8 -17 -15 -31 -15 -16 0
-25 -6 -25 -15 0 -10 -10 -15 -30 -15 -20 0 -30 -5 -30 -15 0 -8 -7 -15 -15
-15 -8 0 -15 -4 -15 -9 0 -5 -13 -12 -30 -16 -16 -4 -30 -10 -30 -15 0 -5 -13
-11 -30 -15 -16 -4 -30 -11 -30 -16 0 -5 -11 -11 -25 -15 -14 -3 -25 -10 -25
-14 0 -5 -13 -11 -30 -15 -16 -4 -30 -10 -30 -15 0 -5 -13 -11 -30 -15 -16 -4
-30 -11 -30 -16 0 -5 -7 -9 -15 -9 -8 0 -15 -7 -15 -15 0 -10 -10 -15 -30 -15
-20 0 -30 -5 -30 -15 0 -9 -9 -15 -25 -15 -14 0 -28 -7 -31 -15 -4 -8 -17 -15
-30 -15 -15 0 -24 -6 -24 -15 0 -8 -7 -15 -16 -15 -8 0 -22 -7 -30 -15 -9 -8
-24 -15 -35 -15 -10 0 -19 -7 -19 -15 0 -9 -9 -15 -24 -15 -13 0 -26 -7 -30
-15 -3 -8 -17 -15 -31 -15 -16 0 -25 -6 -25 -15 0 -8 -9 -15 -20 -15 -11 0
-20 -4 -20 -10 0 -5 -11 -12 -25 -16 -14 -3 -25 -10 -25 -14 0 -5 -13 -11 -30
-15 -16 -4 -30 -10 -30 -15 0 -5 -13 -11 -30 -15 -16 -4 -30 -10 -30 -15 0 -4
-11 -11 -25 -14 -14 -4 -25 -10 -25 -15 0 -5 -13 -12 -30 -16 -16 -4 -30 -11
-30 -16 0 -5 -7 -9 -15 -9 -9 0 -18 -7 -21 -15 -4 -8 -17 -15 -30 -15 -15 0
-24 -6 -24 -15 0 -10 -10 -15 -30 -15 -20 0 -30 -5 -30 -15 0 -8 -9 -15 -19
-15 -11 0 -26 -7 -35 -15 -8 -8 -19 -15 -25 -15 -6 0 -11 -7 -11 -15 0 -10
-10 -15 -30 -15 -20 0 -30 -5 -30 -15 0 -9 -9 -15 -24 -15 -13 0 -26 -7 -30
-15 -3 -8 -17 -15 -31 -15 -16 0 -25 -6 -25 -15 0 -8 -9 -15 -20 -15 -11 0
-20 -4 -20 -10 0 -5 -11 -12 -25 -16 -14 -3 -25 -10 -25 -14 0 -5 -13 -11 -30
-15 -16 -4 -30 -10 -30 -15 0 -5 -13 -11 -30 -15 -17 -4 -30 -13 -30 -21 0 -8
-7 -14 -15 -14 -8 0 -15 -4 -15 -10 0 -5 -11 -10 -25 -10 -14 0 -28 -7 -31
-15 -4 -8 -12 -15 -19 -15 -8 0 -20 -6 -27 -13 -7 -8 -26 -17 -41 -21 -15 -3
-27 -11 -27 -16 0 -6 -8 -10 -19 -10 -10 0 -24 -7 -31 -15 -7 -8 -19 -15 -26
-15 -8 0 -14 -7 -14 -15 0 -10 -10 -15 -30 -15 -20 0 -30 -5 -30 -15 0 -10
-10 -15 -30 -15 -20 0 -30 -5 -30 -15 0 -9 -9 -15 -24 -15 -13 0 -26 -7 -30
-15 -3 -8 -12 -15 -21 -15 -8 0 -15 -4 -15 -10 0 -5 -12 -13 -27 -16 -15 -4
-34 -13 -41 -21 -7 -7 -19 -13 -27 -13 -7 0 -15 -7 -19 -15 -3 -8 -16 -15 -30
-15 -13 0 -26 -7 -30 -15 -3 -8 -12 -15 -21 -15 -8 0 -15 -4 -15 -10 0 -5 -11
-12 -25 -16 -14 -3 -25 -10 -25 -14 0 -5 -13 -11 -30 -15 -16 -4 -30 -10 -30
-15 0 -5 -14 -11 -30 -15 -17 -4 -30 -10 -30 -15 0 -4 -11 -11 -25 -14 -14 -4
-25 -11 -25 -16 0 -6 -9 -10 -20 -10 -11 0 -20 -7 -20 -15 0 -9 -9 -15 -25
-15 -14 0 -28 -7 -31 -15 -4 -8 -17 -15 -30 -15 -15 0 -24 -6 -24 -15 0 -8 -7
-15 -15 -15 -8 0 -15 -7 -15 -15 0 -8 -7 -15 -15 -15 -9 0 -15 -9 -15 -25 0
-14 -6 -28 -14 -31 -8 -3 -17 -16 -20 -30 -4 -13 -11 -24 -16 -24 -6 0 -10
-13 -10 -30 0 -20 -5 -30 -15 -30 -11 0 -15 -12 -15 -46 0 -25 -6 -51 -12 -58
-10 -10 -14 -434 -17 -2034 -3 -1855 -2 -2022 13 -2028 11 -4 16 -18 16 -44 0
-24 5 -40 15 -44 8 -3 15 -17 15 -31 0 -16 6 -25 15 -25 10 0 15 -10 15 -30 0
-20 5 -30 15 -30 8 0 15 -7 15 -15 0 -8 7 -15 15 -15 8 0 15 -7 15 -15 0 -8 7
-15 15 -15 8 0 15 -4 15 -10 0 -5 11 -12 24 -16 14 -3 27 -12 30 -20 3 -8 12
-14 21 -14 8 0 15 -4 15 -10 0 -5 11 -12 25 -16 14 -3 25 -10 25 -14 0 -5 13
-11 30 -15 16 -4 30 -10 30 -15 0 -5 14 -11 30 -15 17 -4 30 -11 30 -16 0 -5
7 -9 15 -9 8 0 15 -7 15 -15 0 -10 10 -15 30 -15 20 0 30 -5 30 -15 0 -10 10
-15 30 -15 20 0 30 -5 30 -15 0 -9 9 -15 25 -15 14 0 28 -7 31 -15 4 -8 17
-15 30 -15 15 0 24 -6 24 -15 0 -10 10 -15 30 -15 20 0 30 -5 30 -15 0 -8 6
-15 14 -15 8 0 16 -7 20 -15 3 -8 17 -15 31 -15 16 0 25 -6 25 -15 0 -10 10
-15 30 -15 20 0 30 -5 30 -15 0 -9 9 -15 24 -15 13 0 26 -7 30 -15 3 -8 12
-15 21 -15 8 0 15 -4 15 -9 0 -5 13 -12 30 -16 16 -4 30 -10 30 -15 0 -4 11
-11 25 -14 14 -4 25 -10 25 -15 0 -5 14 -12 30 -16 17 -4 30 -10 30 -15 0 -5
13 -11 30 -15 16 -4 30 -11 30 -16 0 -5 7 -9 15 -9 8 0 15 -7 15 -15 0 -10 10
-15 30 -15 20 0 30 -5 30 -15 0 -10 10 -15 30 -15 20 0 30 -5 30 -15 0 -9 9
-15 25 -15 16 0 25 -6 25 -15 0 -8 9 -15 19 -15 11 0 26 -7 35 -15 8 -8 22
-15 30 -15 9 0 16 -7 16 -15 0 -9 9 -15 24 -15 13 0 26 -7 30 -15 3 -8 17 -15
31 -15 16 0 25 -6 25 -15 0 -10 10 -15 30 -15 20 0 30 -5 30 -15 0 -8 7 -15
15 -15 8 0 15 -4 15 -9 0 -5 14 -12 30 -16 17 -4 30 -10 30 -15 0 -5 13 -11
30 -15 16 -4 30 -11 30 -16 0 -5 11 -11 25 -15 14 -3 25 -10 25 -15 0 -5 7 -9
15 -9 9 0 18 -7 21 -15 4 -8 17 -15 30 -15 14 0 27 -7 30 -15 4 -8 17 -15 30
-15 15 0 24 -6 24 -15 0 -8 9 -15 19 -15 11 0 26 -6 33 -14 8 -7 24 -17 36
-20 12 -4 22 -12 22 -17 0 -5 9 -9 20 -9 11 0 20 -7 20 -15 0 -10 10 -15 30
-15 20 0 30 -5 30 -15 0 -9 9 -15 24 -15 13 0 26 -7 30 -15 3 -8 17 -15 31
-15 16 0 25 -6 25 -15 0 -8 9 -15 20 -15 11 0 20 -4 20 -10 0 -5 11 -12 25
-16 14 -3 25 -10 25 -14 0 -5 14 -11 30 -15 17 -4 30 -10 30 -15 0 -5 13 -11
30 -15 16 -4 30 -13 30 -21 0 -8 7 -14 15 -14 8 0 15 -4 15 -10 0 -5 11 -10
25 -10 14 0 28 -6 31 -14 3 -8 16 -17 30 -20 13 -4 24 -11 24 -16 0 -6 9 -10
19 -10 11 0 26 -6 33 -13 7 -8 26 -17 41 -21 15 -3 27 -11 27 -16 0 -6 7 -10
15 -10 9 0 18 -7 21 -15 4 -8 17 -15 30 -15 15 0 24 -6 24 -15 0 -10 10 -15
30 -15 20 0 30 -5 30 -15 0 -10 10 -15 30 -15 20 0 30 -5 30 -15 0 -9 9 -15
25 -15 14 0 25 -5 25 -10 0 -6 8 -14 18 -17 9 -4 23 -13 30 -20 7 -7 22 -13
33 -13 10 0 19 -4 19 -10 0 -5 11 -12 25 -16 14 -3 25 -10 25 -14 0 -5 14 -11
30 -15 16 -4 30 -10 30 -15 0 -5 14 -11 30 -15 17 -4 30 -11 30 -16 0 -5 7 -9
15 -9 8 0 15 -7 15 -15 0 -9 9 -15 25 -15 14 0 28 -7 31 -15 4 -8 17 -15 30
-15 14 0 27 -7 30 -15 4 -8 17 -15 30 -15 12 0 27 -6 31 -14 4 -7 30 -16 58
-19 27 -3 51 -10 53 -16 5 -15 179 -15 184 0 2 6 28 14 58 17 30 3 60 11 68
18 7 8 20 14 28 14 9 0 22 7 30 15 9 8 24 15 35 15 10 0 19 4 19 10 0 5 11 12
25 16 14 3 25 10 25 14 0 5 14 11 30 15 17 4 30 10 30 15 0 5 14 11 30 15 17
4 30 10 30 15 0 4 11 11 25 14 14 4 25 11 25 16 0 6 7 10 15 10 9 0 18 7 21
15 4 8 17 15 30 15 15 0 24 6 24 15 0 10 10 15 30 15 20 0 30 5 30 15 0 10 10
15 30 15 20 0 30 5 30 15 0 10 10 15 30 15 20 0 30 5 30 15 0 8 7 15 15 15 8
0 15 7 15 15 0 10 10 15 30 15 20 0 30 5 30 15 0 9 9 15 24 15 13 0 26 7 30
15 3 8 17 15 31 15 16 0 25 6 25 15 0 8 9 15 20 15 11 0 20 4 20 10 0 5 11 12
25 16 14 3 25 10 25 14 0 5 14 11 30 15 17 4 30 10 30 15 0 5 14 11 30 15 17
4 30 11 30 16 0 5 7 9 15 9 8 0 15 7 15 15 0 10 10 15 30 15 20 0 30 5 30 15
0 9 9 15 25 15 14 0 28 6 31 14 3 8 16 17 30 20 13 4 24 11 24 16 0 6 9 10 19
10 11 0 26 7 35 15 8 8 22 15 30 15 9 0 16 7 16 15 0 9 9 15 25 15 16 0 25 6
25 15 0 10 10 15 30 15 20 0 30 5 30 15 0 10 10 15 30 15 20 0 30 5 30 15 0 9
9 15 24 15 13 0 26 7 30 15 3 8 12 15 21 15 8 0 15 4 15 9 0 5 14 12 30 16 17
4 30 11 30 16 0 5 11 11 25 15 14 3 25 10 25 14 0 5 14 11 30 15 17 4 30 10
30 15 0 5 14 11 30 15 17 4 30 11 30 16 0 5 7 9 15 9 8 0 15 7 15 15 0 10 10
15 30 15 19 0 30 5 30 14 0 8 14 17 30 21 17 4 30 11 30 16 0 5 7 9 15 9 8 0
15 7 15 15 0 10 10 15 30 15 20 0 30 5 30 15 0 9 9 15 25 15 16 0 25 6 25 15
0 10 10 15 30 15 20 0 30 5 30 15 0 8 9 15 20 15 11 0 20 4 20 10 0 5 11 12
24 16 14 3 27 12 30 20 3 8 17 14 31 14 16 0 25 6 25 15 0 10 10 15 30 15 20
0 30 5 30 15 0 9 9 15 24 15 13 0 26 7 30 15 3 8 12 15 21 15 8 0 15 4 15 9 0
5 14 12 30 16 17 4 30 10 30 15 0 4 11 11 25 14 14 4 25 10 25 15 0 5 14 12
30 16 17 4 30 11 30 16 0 5 7 9 15 9 9 0 18 7 21 15 4 8 17 15 30 15 15 0 24
6 24 15 0 10 10 15 30 15 20 0 30 5 30 15 0 9 9 15 24 15 13 0 26 7 30 15 3 8
17 15 31 15 16 0 25 6 25 15 0 8 9 15 20 15 11 0 20 4 20 10 0 5 11 12 24 16
14 3 27 12 30 20 3 8 17 14 31 14 16 0 25 6 25 15 0 10 10 15 30 15 20 0 30 5
30 15 0 9 9 15 24 15 13 0 26 7 30 15 3 8 12 15 21 15 8 0 15 4 15 9 0 5 14
12 30 16 17 4 30 10 30 15 0 5 14 11 30 15 17 4 30 10 30 15 0 4 11 11 25 14
14 4 25 11 25 16 0 6 7 10 15 10 8 0 15 7 15 15 0 8 7 15 15 15 8 0 15 7 15
15 0 8 6 15 14 15 8 0 17 13 21 30 4 16 11 30 16 30 5 0 9 7 9 15 0 8 7 15 15
15 10 0 15 10 15 30 0 20 5 30 15 30 11 0 15 11 15 41 0 23 7 47 15 55 13 14
15 254 15 2040 0 1792 -2 2024 -15 2024 -12 0 -15 13 -15 55 0 42 -3 55 -15
55 -10 0 -15 10 -15 30 0 20 -5 30 -15 30 -8 0 -15 9 -15 20 0 11 -4 20 -10
20 -5 0 -12 11 -16 25 -3 14 -12 25 -20 25 -8 0 -14 7 -14 15 0 8 -7 15 -15
15 -8 0 -15 7 -15 15 0 9 -9 15 -24 15 -13 0 -26 7 -30 15 -3 8 -17 15 -31 15
-16 0 -25 6 -25 15 0 8 -9 15 -20 15 -11 0 -20 4 -20 10 0 5 -11 12 -25 16
-14 3 -25 10 -25 14 0 4 -12 11 -26 14 -15 4 -33 14 -41 21 -8 8 -23 15 -34
15 -10 0 -19 7 -19 15 0 8 -7 15 -15 15 -8 0 -15 4 -15 9 0 5 -13 12 -30 16
-16 4 -30 10 -30 15 0 4 -11 11 -25 14 -14 4 -25 11 -25 16 0 6 -9 10 -19 10
-11 0 -26 7 -35 15 -8 8 -20 15 -26 15 -6 0 -13 7 -16 15 -4 8 -17 15 -30 15
-14 0 -27 7 -30 15 -4 8 -17 15 -30 15 -15 0 -24 6 -24 15 0 10 -10 15 -30 15
-20 0 -30 5 -30 15 0 10 -10 15 -30 15 -20 0 -30 5 -30 15 0 9 -9 15 -25 15
-16 0 -25 6 -25 15 0 8 -9 15 -20 15 -11 0 -20 4 -20 10 0 5 -11 12 -25 16
-14 3 -25 10 -25 14 0 5 -13 11 -29 15 -16 3 -32 13 -35 21 -3 8 -17 14 -31
14 -14 0 -25 5 -25 10 0 6 -7 10 -15 10 -8 0 -15 6 -15 14 0 8 -13 17 -30 21
-16 4 -30 10 -30 15 0 5 -13 11 -30 15 -16 4 -30 10 -30 15 0 4 -11 11 -25 14
-14 4 -25 11 -25 16 0 6 -9 10 -20 10 -11 0 -20 7 -20 15 0 9 -9 15 -25 15
-14 0 -28 7 -31 15 -4 8 -17 15 -30 15 -15 0 -24 6 -24 15 0 10 -10 15 -30 15
-20 0 -30 5 -30 15 0 8 -9 15 -20 15 -11 0 -20 4 -20 10 0 5 -11 12 -25 16
-14 3 -25 12 -25 20 0 9 -11 14 -30 14 -20 0 -30 5 -30 15 0 9 -9 15 -24 15
-13 0 -26 7 -30 15 -3 8 -16 15 -30 15 -13 0 -26 7 -30 15 -3 8 -12 15 -21 15
-8 0 -15 4 -15 10 0 5 -11 12 -25 16 -14 3 -25 10 -25 14 0 5 -13 11 -30 15
-16 4 -30 10 -30 15 0 5 -13 11 -30 15 -16 4 -30 11 -30 16 0 5 -7 9 -15 9 -8
0 -15 7 -15 15 0 10 -10 15 -30 15 -20 0 -30 5 -30 15 0 9 -9 15 -25 15 -14 0
-28 7 -31 15 -4 8 -17 15 -30 15 -15 0 -24 6 -24 15 0 8 -9 15 -20 15 -11 0
-20 7 -20 15 0 9 -9 15 -25 15 -14 0 -28 7 -31 15 -4 8 -17 15 -30 15 -15 0
-24 6 -24 15 0 10 -10 15 -30 15 -20 0 -30 5 -30 15 0 9 -9 15 -24 15 -13 0
-26 7 -30 15 -3 8 -12 15 -21 15 -8 0 -15 4 -15 9 0 5 -13 12 -30 16 -16 4
-30 10 -30 15 0 4 -11 11 -25 14 -14 4 -25 10 -25 15 0 5 -13 12 -30 16 -16 4
-30 11 -30 16 0 5 -7 9 -15 9 -9 0 -18 7 -21 15 -4 8 -17 15 -30 15 -15 0 -24
6 -24 15 0 8 -9 15 -19 15 -11 0 -26 7 -34 15 -8 7 -26 17 -41 21 -14 3 -26
10 -26 14 0 4 -11 11 -25 14 -14 4 -25 11 -25 16 0 6 -9 10 -20 10 -11 0 -20
7 -20 15 0 10 -10 15 -30 15 -20 0 -30 5 -30 15 0 9 -9 15 -25 15 -16 0 -25 6
-25 15 0 8 -9 15 -20 15 -11 0 -20 4 -20 10 0 5 -11 12 -25 16 -14 3 -25 10
-25 14 0 5 -13 11 -30 15 -16 4 -30 10 -30 15 0 5 -13 11 -30 15 -16 4 -30 13
-30 21 0 8 -10 14 -24 14 -13 0 -26 7 -30 15 -3 8 -12 15 -21 15 -8 0 -15 5
-15 10 0 6 -11 10 -25 10 -13 0 -28 6 -32 13 -4 8 -26 17 -48 20 -22 4 -41 11
-43 17 -5 14 -249 14 -254 -1z m142 -1228 c0 -5 14 -12 30 -16 17 -4 30 -10
30 -15 0 -5 14 -11 30 -15 17 -4 30 -10 30 -15 0 -4 11 -11 25 -14 14 -4 25
-10 25 -15 0 -5 14 -12 30 -16 17 -4 30 -11 30 -16 0 -5 7 -9 15 -9 9 0 18 -7
21 -15 4 -8 17 -15 30 -15 15 0 24 -6 24 -15 0 -10 10 -15 30 -15 20 0 30 -5
30 -15 0 -9 9 -15 25 -15 14 0 28 -7 31 -15 4 -8 12 -15 20 -15 8 0 14 -7 14
-15 0 -10 10 -15 30 -15 20 0 30 -5 30 -15 0 -10 10 -15 30 -15 20 0 30 -5 30
-15 0 -9 9 -15 25 -15 16 0 25 -6 25 -15 0 -10 10 -15 30 -15 20 0 30 -5 30
-15 0 -8 9 -15 20 -15 11 0 20 -4 20 -10 0 -5 11 -12 25 -16 14 -3 25 -10 25
-14 0 -5 14 -11 30 -15 17 -4 30 -10 30 -15 0 -5 14 -11 30 -15 17 -4 30 -11
30 -16 0 -5 7 -9 15 -9 8 0 15 -7 15 -15 0 -9 9 -15 25 -15 14 0 28 -7 31 -15
4 -8 17 -15 30 -15 15 0 24 -6 24 -15 0 -10 10 -15 30 -15 20 0 30 -5 30 -15
0 -8 9 -15 19 -15 11 0 26 -7 35 -15 8 -8 19 -15 25 -15 6 0 11 -7 11 -15 0
-10 10 -15 30 -15 20 0 30 -5 30 -15 0 -10 10 -15 30 -15 20 0 30 -5 30 -15 0
-9 9 -15 25 -15 14 0 25 -5 25 -10 0 -6 8 -14 18 -17 9 -4 23 -13 30 -20 7 -7
22 -13 33 -13 10 0 19 -4 19 -10 0 -5 11 -12 25 -16 14 -3 25 -10 25 -14 0 -5
14 -11 30 -15 17 -4 30 -10 30 -15 0 -5 14 -11 30 -15 17 -4 30 -11 30 -16 0
-5 7 -9 15 -9 8 0 15 -7 15 -15 0 -9 9 -15 25 -15 14 0 28 -7 31 -15 4 -8 12
-15 19 -15 8 0 20 -6 27 -13 7 -8 26 -17 41 -21 15 -3 27 -11 27 -16 0 -6 9
-10 20 -10 11 0 20 -7 20 -15 0 -9 9 -15 25 -15 14 0 28 -7 31 -15 4 -8 17
-15 30 -15 15 0 24 -6 24 -15 0 -10 10 -15 30 -15 20 0 30 -5 30 -15 0 -10 10
-15 30 -15 20 0 30 -5 30 -15 0 -8 7 -15 15 -15 8 0 15 -4 15 -9 0 -5 12 -12
26 -15 15 -4 33 -14 41 -21 8 -8 23 -15 34 -15 10 0 19 -4 19 -10 0 -5 11 -12
25 -16 14 -3 25 -10 25 -14 0 -5 14 -11 30 -15 17 -4 30 -11 30 -16 0 -5 7 -9
15 -9 9 0 18 -7 21 -15 4 -8 17 -15 30 -15 14 0 24 -6 24 -14 0 -8 14 -17 30
-21 17 -4 30 -11 30 -16 0 -5 7 -9 15 -9 8 0 15 -7 15 -15 0 -8 7 -15 15 -15
8 0 15 -7 15 -15 0 -8 7 -15 15 -15 13 0 15 -47 15 -360 0 -347 1 -361 20
-380 11 -11 25 -20 30 -20 6 0 10 -7 10 -15 0 -9 9 -15 25 -15 16 0 25 -6 25
-15 0 -10 10 -15 30 -15 20 0 30 -5 30 -15 0 -8 7 -15 15 -15 9 0 18 -7 21
-15 4 -8 17 -15 30 -15 15 0 24 -6 24 -15 0 -10 10 -15 30 -15 20 0 30 -5 30
-15 0 -10 10 -15 30 -15 20 0 30 -5 30 -15 0 -10 10 -15 30 -15 20 0 30 -5 30
-15 0 -8 7 -15 15 -15 8 0 15 -4 15 -10 0 -5 11 -12 24 -16 24 -6 36 -29 36
-71 0 -13 5 -23 10 -23 7 0 10 -395 10 -1165 0 -770 -3 -1165 -10 -1165 -5 0
-10 -5 -10 -11 0 -15 -42 -59 -57 -59 -7 0 -13 -4 -13 -10 0 -5 -11 -12 -25
-16 -14 -3 -25 -10 -25 -14 0 -5 -13 -11 -30 -15 -16 -4 -30 -10 -30 -15 0 -5
-13 -11 -30 -15 -16 -4 -30 -13 -30 -21 0 -8 -7 -14 -15 -14 -8 0 -15 -4 -15
-9 0 -5 -13 -12 -30 -16 -16 -4 -30 -10 -30 -15 0 -5 -13 -11 -30 -15 -16 -4
-30 -10 -30 -15 0 -4 -11 -11 -25 -14 -14 -4 -25 -11 -25 -16 0 -6 -9 -10 -20
-10 -11 0 -20 -7 -20 -15 0 -9 -9 -15 -25 -15 -14 0 -28 -7 -31 -15 -4 -8 -17
-15 -30 -15 -15 0 -24 -6 -24 -15 0 -10 -10 -15 -30 -15 -20 0 -30 -5 -30 -15
0 -10 -10 -15 -30 -15 -20 0 -30 -5 -30 -15 0 -8 -7 -15 -15 -15 -8 0 -15 -4
-15 -9 0 -5 -12 -12 -26 -15 -15 -4 -33 -14 -41 -21 -8 -8 -23 -15 -34 -15
-10 0 -19 -4 -19 -10 0 -5 -11 -12 -25 -16 -14 -3 -25 -10 -25 -14 0 -5 -13
-11 -30 -15 -16 -4 -30 -11 -30 -16 0 -5 -7 -9 -15 -9 -9 0 -18 -6 -21 -14 -3
-8 -16 -17 -30 -20 -13 -4 -24 -10 -24 -15 0 -5 -13 -12 -30 -16 -16 -4 -30
-10 -30 -15 0 -4 -11 -11 -25 -14 -14 -4 -25 -11 -25 -16 0 -6 -9 -10 -20 -10
-11 0 -20 -7 -20 -15 0 -10 -10 -15 -30 -15 -20 0 -30 -5 -30 -15 0 -9 -9 -15
-24 -15 -13 0 -26 -7 -30 -15 -3 -8 -17 -15 -31 -15 -16 0 -25 -6 -25 -15 0
-10 -10 -15 -30 -15 -20 0 -30 -5 -30 -15 0 -8 -7 -15 -15 -15 -8 0 -15 -4
-15 -9 0 -5 -13 -12 -30 -16 -16 -4 -30 -13 -30 -21 0 -9 -11 -14 -30 -14 -20
0 -30 -5 -30 -15 0 -9 -9 -15 -24 -15 -13 0 -26 -7 -30 -15 -3 -8 -12 -15 -21
-15 -8 0 -15 -4 -15 -9 0 -5 -13 -12 -30 -16 -16 -4 -30 -10 -30 -15 0 -4 -11
-11 -25 -14 -14 -4 -25 -10 -25 -15 0 -5 -13 -12 -30 -16 -16 -4 -30 -11 -30
-16 0 -5 -7 -9 -15 -9 -8 0 -15 -7 -15 -15 0 -10 -10 -15 -30 -15 -20 0 -30
-5 -30 -15 0 -10 -10 -15 -30 -15 -20 0 -30 -5 -30 -15 0 -9 -9 -15 -25 -15
-16 0 -25 -6 -25 -15 0 -10 -10 -15 -30 -15 -20 0 -30 -5 -30 -15 0 -8 -7 -15
-16 -15 -8 0 -22 -7 -30 -15 -9 -8 -24 -15 -35 -15 -10 0 -19 -4 -19 -10 0 -5
-11 -12 -25 -16 -14 -3 -25 -10 -25 -14 0 -4 -12 -11 -26 -14 -15 -4 -33 -14
-41 -21 -8 -8 -23 -15 -34 -15 -10 0 -19 -7 -19 -15 0 -8 -7 -15 -15 -15 -8 0
-15 -4 -15 -9 0 -5 -13 -12 -30 -16 -16 -4 -30 -10 -30 -15 0 -4 -11 -11 -25
-14 -14 -4 -25 -11 -25 -16 0 -6 -9 -10 -19 -10 -11 0 -26 -7 -35 -15 -8 -8
-20 -15 -26 -15 -6 0 -13 -7 -16 -15 -4 -8 -17 -15 -30 -15 -15 0 -24 -6 -24
-15 0 -10 -10 -15 -30 -15 -20 0 -30 -5 -30 -15 0 -10 -10 -15 -30 -15 -20 0
-30 -5 -30 -15 0 -9 -9 -15 -24 -15 -13 0 -26 -7 -30 -15 -3 -8 -17 -15 -31
-15 -16 0 -25 -6 -25 -15 0 -8 -7 -15 -16 -15 -8 0 -22 -7 -30 -15 -9 -8 -24
-15 -35 -15 -10 0 -19 -4 -19 -10 0 -5 -11 -12 -24 -16 -14 -3 -27 -12 -30
-20 -3 -8 -16 -14 -30 -14 -13 0 -26 -5 -28 -11 -6 -18 -82 -23 -99 -7 -8 8
-27 18 -42 22 -15 3 -27 11 -27 16 0 6 -9 10 -20 10 -11 0 -20 7 -20 15 0 9
-9 15 -25 15 -14 0 -28 7 -31 15 -4 8 -17 15 -30 15 -15 0 -24 6 -24 15 0 10
-10 15 -30 15 -20 0 -30 5 -30 15 0 10 -10 15 -30 15 -20 0 -30 5 -30 15 0 8
-7 15 -15 15 -8 0 -15 7 -15 15 0 10 -10 15 -30 15 -20 0 -30 5 -30 15 0 10
-10 15 -30 15 -20 0 -30 5 -30 15 0 9 -9 15 -24 15 -13 0 -26 7 -30 15 -3 8
-12 15 -21 15 -8 0 -15 4 -15 9 0 5 -13 12 -30 16 -16 4 -30 11 -30 16 0 5
-11 11 -25 15 -14 3 -25 10 -25 14 0 5 -13 11 -30 15 -16 4 -30 10 -30 15 0 4
-11 11 -25 14 -14 4 -25 11 -25 16 0 6 -9 10 -20 10 -11 0 -20 7 -20 15 0 10
-10 15 -30 15 -20 0 -30 5 -30 15 0 9 -9 15 -25 15 -14 0 -28 7 -31 15 -4 8
-17 15 -30 15 -15 0 -24 6 -24 15 0 10 -10 15 -30 15 -20 0 -30 5 -30 15 0 10
-10 15 -30 15 -20 0 -30 5 -30 15 0 8 -7 15 -15 15 -8 0 -15 4 -15 9 0 5 -13
12 -30 16 -16 4 -30 13 -30 21 0 9 -11 14 -30 14 -20 0 -30 5 -30 15 0 9 -9
15 -24 15 -13 0 -26 7 -30 15 -3 8 -12 15 -21 15 -8 0 -15 4 -15 9 0 5 -13 12
-30 16 -17 4 -30 10 -30 15 0 4 -11 11 -25 14 -14 4 -25 10 -25 15 0 5 -13 12
-30 16 -16 4 -30 11 -30 16 0 5 -7 9 -15 9 -9 0 -18 7 -21 15 -4 8 -17 15 -30
15 -15 0 -24 6 -24 15 0 10 -10 15 -30 15 -20 0 -30 5 -30 15 0 9 -9 15 -25
15 -14 0 -28 6 -31 14 -3 8 -16 17 -30 20 -13 4 -24 11 -24 16 0 6 -9 10 -20
10 -11 0 -20 7 -20 15 0 9 -9 15 -24 15 -13 0 -26 7 -30 15 -3 8 -17 15 -31
15 -16 0 -25 6 -25 15 0 10 -10 15 -30 15 -20 0 -30 5 -30 15 0 8 -7 15 -15
15 -8 0 -15 4 -15 9 0 5 -13 12 -30 16 -16 4 -30 10 -30 15 0 5 -13 11 -30 15
-16 4 -30 10 -30 15 0 4 -11 11 -25 14 -14 4 -25 10 -25 15 0 5 -13 12 -30 16
-16 4 -30 11 -30 16 0 5 -7 9 -15 9 -9 0 -18 7 -21 15 -4 8 -17 15 -30 15 -15
0 -24 6 -24 15 0 10 -10 15 -30 15 -19 0 -30 5 -30 14 0 8 -13 17 -30 21 -17
4 -30 11 -30 16 0 5 -7 9 -15 9 -8 0 -15 7 -15 15 0 10 -10 15 -30 15 -20 0
-30 5 -30 15 0 10 -10 15 -30 15 -20 0 -30 5 -30 15 0 9 -9 15 -24 15 -13 0
-26 7 -30 15 -3 8 -17 15 -31 15 -16 0 -25 6 -25 15 0 8 -9 15 -20 15 -11 0
-20 4 -20 10 0 5 -11 12 -25 16 -14 3 -25 10 -25 14 0 5 -14 11 -30 15 -17 4
-30 10 -30 15 0 5 -14 11 -30 15 -17 4 -30 10 -30 15 0 5 -14 11 -30 15 -17 4
-30 10 -30 15 0 4 -11 11 -25 14 -14 4 -25 11 -25 16 0 6 -7 10 -15 10 -8 0
-15 7 -15 15 0 8 -6 15 -14 15 -10 0 -17 15 -21 43 -3 23 -5 569 -3 1213 3
1080 4 1172 20 1187 9 9 22 17 28 17 6 0 13 7 16 15 4 8 12 15 19 15 8 0 20 6
27 13 7 8 26 17 41 21 15 3 27 11 27 16 0 6 7 10 15 10 9 0 18 7 21 15 4 8 17
15 30 15 15 0 24 6 24 15 0 10 10 15 30 15 20 0 30 5 30 15 0 9 9 15 24 15 13
0 26 7 30 15 3 8 12 15 21 15 8 0 15 7 15 15 0 9 9 15 25 15 16 0 25 6 25 15
0 8 7 15 15 15 8 0 15 7 15 15 0 8 7 15 15 15 13 0 15 47 15 365 0 318 2 365
15 365 8 0 15 7 15 15 0 8 7 15 15 15 8 0 15 7 15 15 0 8 7 15 15 15 8 0 15 4
15 9 0 5 13 12 30 16 17 4 30 13 30 21 0 8 10 14 24 14 13 0 26 7 30 15 3 8
12 15 21 15 8 0 15 4 15 9 0 5 13 12 30 16 17 4 30 11 30 16 0 5 6 9 14 9 8 0
21 6 28 13 7 8 26 17 41 21 15 3 27 11 27 16 0 6 7 10 15 10 9 0 18 7 21 15 4
8 17 15 30 15 15 0 24 6 24 15 0 10 10 15 30 15 20 0 30 5 30 15 0 10 10 15
30 15 20 0 30 5 30 15 0 9 9 15 25 15 16 0 25 6 25 15 0 8 9 15 20 15 11 0 20
7 20 15 0 10 10 15 30 15 20 0 30 5 30 15 0 9 9 15 24 15 13 0 26 7 30 15 3 8
17 15 31 15 16 0 25 6 25 15 0 8 7 15 15 15 8 0 15 4 15 9 0 5 14 12 30 16 17
4 30 10 30 15 0 5 14 11 30 15 17 4 30 10 30 15 0 4 11 11 25 14 14 4 25 11
25 16 0 6 7 10 15 10 9 0 18 7 21 15 4 8 17 15 30 15 14 0 27 7 30 15 4 8 17
15 30 15 15 0 24 6 24 15 0 10 10 15 30 15 20 0 30 5 30 15 0 10 10 15 30 15
20 0 30 5 30 15 0 8 5 15 11 15 6 0 17 7 25 15 9 8 24 15 35 15 10 0 19 7 19
15 0 10 10 15 30 15 20 0 30 5 30 15 0 9 9 15 25 15 14 0 25 5 25 10 0 6 8 14
18 17 9 4 23 13 30 20 7 7 22 13 33 13 10 0 19 4 19 10 0 5 11 12 25 16 14 3
25 10 25 14 0 5 14 11 30 15 17 4 30 10 30 15 0 5 14 11 30 15 17 4 30 10 30
15 0 4 11 11 25 14 14 4 25 11 25 16 0 6 9 10 20 10 11 0 20 7 20 15 0 9 9 15
25 15 14 0 28 7 31 15 4 8 17 15 30 15 15 0 24 6 24 15 0 10 10 15 30 15 20 0
30 5 30 15 0 8 9 15 20 15 11 0 20 7 20 15 0 9 9 15 25 15 16 0 25 6 25 15 0
10 10 15 30 15 20 0 30 5 30 15 0 10 10 15 30 15 20 0 30 5 30 15 0 9 9 15 24
15 13 0 26 7 30 15 3 8 12 15 21 15 8 0 15 4 15 9 0 5 14 12 30 16 17 4 30 11
30 16 0 5 11 11 25 15 14 3 25 10 25 14 0 5 14 11 30 15 17 4 30 10 30 15 0 5
14 11 30 15 17 4 30 11 30 16 0 5 14 9 30 9 17 0 30 -4 30 -9z"/>
<path d="M2530 6640 c0 -6 -8 -14 -17 -17 -46 -17 -48 -28 -48 -217 0 -166 2
-183 20 -203 11 -13 25 -23 32 -23 7 0 13 -4 13 -10 0 -5 11 -12 25 -16 14 -3
25 -10 25 -14 0 -5 14 -11 30 -15 17 -4 30 -11 30 -16 0 -5 7 -9 15 -9 8 0 15
-7 15 -15 0 -10 10 -15 30 -15 19 0 30 -5 30 -14 0 -8 14 -17 30 -21 17 -4 30
-10 30 -15 0 -4 11 -11 25 -14 14 -4 25 -11 25 -16 0 -6 9 -10 20 -10 11 0 20
-7 20 -15 0 -9 9 -15 25 -15 14 0 28 -7 31 -15 4 -8 17 -15 30 -15 15 0 24 -6
24 -15 0 -10 10 -15 30 -15 20 0 30 -5 30 -15 0 -8 9 -15 20 -15 11 0 20 -4
20 -9 0 -5 10 -13 22 -17 12 -3 28 -13 36 -20 7 -8 22 -14 33 -14 10 0 19 -7
19 -15 0 -9 9 -15 24 -15 13 0 26 -7 30 -15 3 -8 12 -15 21 -15 8 0 15 -4 15
-9 0 -5 14 -12 30 -16 17 -4 30 -10 30 -15 0 -4 11 -11 25 -14 14 -4 25 -10
25 -15 0 -5 14 -12 30 -16 17 -4 30 -11 30 -16 0 -5 7 -9 15 -9 9 0 18 -7 21
-15 4 -8 17 -15 30 -15 15 0 24 -6 24 -15 0 -10 10 -15 30 -15 20 0 30 -5 30
-15 0 -9 9 -15 25 -15 16 0 25 -6 25 -15 0 -10 10 -15 30 -15 20 0 30 -5 30
-15 0 -8 9 -15 20 -15 11 0 20 -7 20 -15 0 -9 9 -15 24 -15 13 0 26 -7 30 -15
3 -8 17 -15 31 -15 16 0 25 -6 25 -15 0 -10 10 -15 30 -15 20 0 30 -5 30 -15
0 -8 7 -15 15 -15 8 0 15 -4 15 -9 0 -5 14 -12 30 -16 17 -4 30 -10 30 -15 0
-5 14 -11 30 -15 17 -4 30 -10 30 -15 0 -4 11 -11 25 -14 14 -4 25 -11 25 -16
0 -6 7 -10 15 -10 9 0 18 -7 21 -15 4 -8 17 -15 30 -15 14 0 27 -7 30 -15 4
-8 17 -15 30 -15 15 0 24 -6 24 -15 0 -10 10 -15 30 -15 19 0 30 -5 30 -14 0
-8 11 -17 25 -20 14 -4 25 -11 25 -16 0 -6 9 -10 20 -10 11 0 20 -7 20 -15 0
-10 10 -15 30 -15 20 0 30 -5 30 -15 0 -10 10 -15 30 -15 20 0 30 -5 30 -15 0
-9 9 -15 25 -15 16 0 25 -6 25 -15 0 -8 9 -15 20 -15 11 0 20 -4 20 -9 0 -5
10 -13 22 -16 11 -4 31 -18 43 -31 12 -13 27 -24 34 -24 8 0 11 -52 11 -179 0
-146 3 -182 15 -195 8 -8 15 -26 15 -39 0 -20 6 -27 30 -32 17 -4 30 -11 30
-16 0 -5 14 -9 30 -9 17 0 30 4 30 10 0 5 18 13 40 16 22 4 40 10 40 14 0 5
14 11 30 15 17 4 30 11 30 16 0 5 7 9 15 9 9 0 18 7 21 15 4 8 17 15 30 15 14
0 24 6 24 14 0 8 14 17 30 21 17 4 30 11 30 16 0 5 7 9 15 9 8 0 15 7 15 15 0
10 10 15 30 15 20 0 30 5 30 15 0 9 9 15 25 15 16 0 25 6 25 15 0 8 7 15 16
15 8 0 22 7 30 15 9 8 24 15 35 15 10 0 19 7 19 15 0 9 9 15 24 15 13 0 26 7
30 15 3 8 17 15 31 15 16 0 25 6 25 15 0 10 10 15 30 15 20 0 30 5 30 15 0 8
7 15 15 15 8 0 15 4 15 9 0 5 14 12 30 16 17 4 30 10 30 15 0 5 14 11 30 15
17 4 30 11 30 16 0 5 11 11 25 15 14 3 25 10 25 15 0 5 7 9 15 9 9 0 18 7 21
15 4 8 17 15 30 15 15 0 24 6 24 15 0 10 10 15 30 15 20 0 30 5 30 15 0 10 10
15 30 15 19 0 30 5 30 14 0 8 11 17 25 20 14 4 25 11 25 16 0 6 9 10 20 10 11
0 20 7 20 15 0 10 10 15 30 15 20 0 30 5 30 15 0 9 9 15 24 15 13 0 26 7 30
15 3 8 16 15 30 15 13 0 26 7 30 15 3 8 17 15 31 15 16 0 25 6 25 15 0 8 9 15
20 15 11 0 20 4 20 10 0 5 11 12 25 16 14 3 25 10 25 14 0 5 14 11 30 15 17 4
30 10 30 15 0 4 11 11 25 14 14 4 25 11 25 16 0 6 9 10 20 10 11 0 20 7 20 15
0 9 9 15 25 15 14 0 28 7 31 15 4 8 17 15 30 15 15 0 24 6 24 15 0 10 10 15
30 15 20 0 30 5 30 15 0 10 10 15 30 15 20 0 30 5 30 15 0 10 10 15 30 15 20
0 30 5 30 15 0 8 7 15 15 15 8 0 15 4 15 9 0 5 12 12 26 15 15 4 33 14 41 21
8 8 23 15 34 15 10 0 19 7 19 15 0 8 4 15 10 15 15 0 50 33 50 46 0 7 4 14 9
16 7 2 17 717 12 895 -1 27 -6 32 -31 38 -16 4 -30 11 -30 16 0 5 -4 9 -10 9
-5 0 -10 -7 -10 -15 0 -10 -10 -15 -29 -15 -16 0 -31 -6 -35 -15 -3 -8 -17
-15 -31 -15 -16 0 -25 -6 -25 -15 0 -8 -7 -15 -15 -15 -8 0 -15 -4 -15 -9 0
-5 -13 -12 -30 -16 -16 -4 -30 -10 -30 -15 0 -5 -13 -11 -30 -15 -16 -4 -30
-10 -30 -15 0 -4 -11 -11 -25 -14 -14 -4 -25 -11 -25 -16 0 -6 -9 -10 -19 -10
-11 0 -26 -6 -33 -13 -7 -7 -21 -16 -30 -20 -10 -3 -18 -11 -18 -17 0 -5 -11
-10 -25 -10 -16 0 -25 -6 -25 -15 0 -10 -10 -15 -30 -15 -20 0 -30 -5 -30 -15
0 -10 -10 -15 -30 -15 -20 0 -30 -5 -30 -15 0 -8 -7 -15 -15 -15 -8 0 -15 -4
-15 -10 0 -5 -12 -13 -27 -16 -15 -4 -34 -13 -41 -21 -7 -7 -22 -13 -33 -13
-10 0 -19 -7 -19 -15 0 -9 -9 -15 -24 -15 -13 0 -26 -7 -30 -15 -3 -8 -16 -15
-30 -15 -13 0 -26 -7 -30 -15 -3 -8 -17 -15 -31 -15 -16 0 -25 -6 -25 -15 0
-8 -7 -15 -15 -15 -8 0 -15 -4 -15 -9 0 -5 -13 -12 -30 -16 -16 -4 -30 -10
-30 -15 0 -5 -13 -11 -30 -15 -16 -4 -30 -11 -30 -16 0 -5 -6 -9 -14 -9 -8 0
-21 -6 -28 -13 -7 -8 -26 -17 -41 -21 -15 -3 -27 -11 -27 -16 0 -6 -9 -10 -20
-10 -11 0 -20 -7 -20 -15 0 -9 -9 -15 -25 -15 -16 0 -25 -6 -25 -15 0 -10 -10
-15 -30 -15 -20 0 -30 -5 -30 -15 0 -10 -10 -15 -30 -15 -20 0 -30 -5 -30 -15
0 -9 -9 -15 -24 -15 -13 0 -26 -7 -30 -15 -3 -8 -12 -15 -21 -15 -8 0 -15 -4
-15 -10 0 -5 -12 -13 -27 -16 -15 -4 -34 -13 -41 -21 -7 -7 -22 -13 -33 -13
-10 0 -19 -4 -19 -10 0 -5 -11 -12 -25 -16 -14 -3 -25 -10 -25 -14 0 -5 -13
-11 -30 -15 -16 -4 -30 -10 -30 -15 0 -5 -13 -11 -30 -15 -16 -4 -30 -11 -30
-16 0 -5 -7 -9 -15 -9 -8 0 -15 -6 -15 -14 0 -8 -13 -17 -30 -21 -16 -4 -30
-10 -30 -15 0 -4 -11 -11 -25 -14 -14 -4 -25 -11 -25 -16 0 -6 -9 -10 -20 -10
-11 0 -20 -7 -20 -15 0 -10 -10 -15 -30 -15 -20 0 -30 -5 -30 -15 0 -9 -9 -15
-25 -15 -16 0 -25 -6 -25 -15 0 -10 -10 -15 -30 -15 -20 0 -30 -5 -30 -15 0
-10 -10 -15 -30 -15 -20 0 -30 -5 -30 -15 0 -12 -13 -15 -60 -15 -47 0 -60 3
-60 15 0 10 -10 15 -30 15 -20 0 -30 5 -30 15 0 9 -9 15 -25 15 -16 0 -25 6
-25 15 0 8 -7 15 -16 15 -8 0 -22 7 -30 15 -9 8 -24 15 -35 15 -10 0 -19 7
-19 15 0 9 -9 15 -24 15 -13 0 -26 7 -30 15 -3 8 -17 15 -31 15 -16 0 -25 6
-25 15 0 10 -10 15 -30 15 -20 0 -30 5 -30 15 0 8 -7 15 -15 15 -8 0 -15 4
-15 9 0 5 -13 12 -30 16 -16 4 -30 10 -30 15 0 4 -11 11 -25 14 -14 4 -25 11
-25 16 0 6 -9 10 -19 10 -11 0 -26 6 -33 13 -7 7 -21 16 -30 20 -10 3 -18 11
-18 17 0 5 -11 10 -25 10 -16 0 -25 6 -25 15 0 10 -10 15 -30 15 -20 0 -30 5
-30 15 0 9 -9 15 -25 15 -14 0 -28 7 -31 15 -4 8 -12 15 -20 15 -8 0 -14 7
-14 15 0 10 -10 15 -30 15 -20 0 -30 5 -30 15 0 10 -10 15 -30 15 -20 0 -30 5
-30 15 0 9 -9 15 -24 15 -13 0 -26 7 -30 15 -3 8 -16 15 -30 15 -13 0 -26 7
-30 15 -3 8 -17 15 -31 15 -16 0 -25 6 -25 15 0 8 -9 15 -20 15 -11 0 -20 4
-20 10 0 5 -11 12 -25 16 -14 3 -25 10 -25 14 0 5 -13 11 -30 15 -16 4 -30 10
-30 15 0 4 -11 11 -25 14 -14 4 -25 11 -25 16 0 6 -9 10 -20 10 -11 0 -20 7
-20 15 0 9 -9 15 -25 15 -14 0 -28 7 -31 15 -4 8 -17 15 -30 15 -15 0 -24 6
-24 15 0 10 -10 15 -30 15 -20 0 -30 5 -30 15 0 10 -10 15 -30 15 -20 0 -30 5
-30 15 0 8 -7 15 -15 15 -8 0 -15 7 -15 15 0 10 -10 15 -30 15 -20 0 -30 5
-30 15 0 10 -10 15 -30 15 -20 0 -30 5 -30 15 0 9 -9 15 -24 15 -13 0 -26 7
-30 15 -3 8 -12 15 -21 15 -8 0 -15 4 -15 9 0 5 -13 12 -30 16 -16 4 -30 11
-30 16 0 5 -11 11 -25 15 -14 3 -25 10 -25 14 0 5 -13 11 -30 15 -16 4 -30 10
-30 15 0 5 -13 11 -30 15 -16 4 -30 10 -30 15 0 5 -13 11 -30 15 -16 4 -30 11
-30 16 0 5 -11 9 -25 9 -14 0 -28 7 -31 15 -7 17 -24 20 -24 5z"/>
<path d="M7500 5555 c0 -9 -9 -15 -25 -15 -16 0 -25 -6 -25 -15 0 -10 -10 -15
-30 -15 -20 0 -30 -5 -30 -15 0 -8 -7 -15 -15 -15 -8 0 -15 -7 -15 -15 0 -8
-9 -15 -20 -15 -11 0 -20 -4 -20 -10 0 -5 -11 -12 -25 -16 -14 -3 -25 -12 -25
-20 0 -9 -11 -14 -30 -14 -20 0 -30 -5 -30 -15 0 -9 -9 -15 -24 -15 -13 0 -26
-7 -30 -15 -3 -8 -12 -15 -21 -15 -8 0 -15 -4 -15 -9 0 -5 -13 -12 -30 -16
-16 -4 -30 -11 -30 -16 0 -5 -11 -11 -25 -15 -14 -3 -25 -10 -25 -14 0 -5 -13
-11 -30 -15 -16 -4 -30 -11 -30 -16 0 -5 -7 -9 -15 -9 -9 0 -18 -7 -21 -15 -4
-8 -17 -15 -30 -15 -15 0 -24 -6 -24 -15 0 -10 -10 -15 -30 -15 -20 0 -30 -5
-30 -15 0 -9 -9 -15 -25 -15 -14 0 -28 -7 -31 -15 -4 -8 -17 -15 -30 -15 -15
0 -24 -6 -24 -15 0 -10 -10 -15 -30 -15 -20 0 -30 -5 -30 -15 0 -8 -9 -15 -20
-15 -11 0 -20 -7 -20 -15 0 -9 -9 -15 -24 -15 -13 0 -26 -7 -30 -15 -3 -8 -17
-15 -31 -15 -16 0 -25 -6 -25 -15 0 -10 -10 -15 -30 -15 -20 0 -30 -5 -30 -15
0 -8 -7 -15 -15 -15 -8 0 -15 -4 -15 -9 0 -5 -13 -12 -30 -16 -16 -4 -30 -10
-30 -15 0 -5 -13 -11 -30 -15 -16 -4 -30 -10 -30 -15 0 -4 -11 -11 -25 -14
-14 -4 -25 -10 -25 -15 0 -5 -13 -12 -30 -16 -16 -4 -30 -11 -30 -16 0 -5 -7
-9 -15 -9 -9 0 -18 -7 -21 -15 -4 -8 -17 -15 -30 -15 -15 0 -24 -6 -24 -15 0
-10 -10 -15 -30 -15 -20 0 -30 -5 -30 -15 0 -9 -9 -15 -25 -15 -16 0 -25 -6
-25 -15 0 -8 -9 -15 -20 -15 -11 0 -20 -7 -20 -15 0 -10 -10 -15 -30 -15 -20
0 -30 -5 -30 -15 0 -9 -9 -15 -24 -15 -13 0 -26 -7 -30 -15 -3 -8 -17 -15 -31
-15 -16 0 -25 -6 -25 -15 0 -8 -9 -15 -20 -15 -11 0 -20 -4 -20 -10 0 -5 -11
-12 -25 -16 -14 -3 -25 -10 -25 -14 0 -5 -13 -11 -30 -15 -16 -4 -30 -10 -30
-15 0 -5 -13 -11 -30 -15 -16 -4 -30 -11 -30 -16 0 -5 -11 -11 -25 -15 -14 -3
-25 -10 -25 -15 0 -5 -7 -9 -15 -9 -9 0 -18 -7 -21 -15 -4 -8 -17 -15 -30 -15
-14 0 -27 -7 -30 -15 -4 -8 -17 -15 -30 -15 -15 0 -24 -6 -24 -15 0 -10 -10
-15 -30 -15 -20 0 -30 -5 -30 -15 0 -8 -9 -15 -20 -15 -11 0 -20 -7 -20 -15 0
-9 -9 -15 -25 -15 -16 0 -25 -6 -25 -15 0 -10 -10 -15 -30 -15 -20 0 -30 -5
-30 -15 0 -10 -10 -15 -30 -15 -20 0 -30 -5 -30 -15 0 -9 -9 -15 -25 -15 -16
0 -25 -6 -25 -15 0 -8 -7 -15 -16 -15 -8 0 -22 -7 -30 -15 -9 -8 -24 -15 -35
-15 -10 0 -19 -4 -19 -9 0 -5 -10 -13 -22 -17 -13 -4 -26 -11 -29 -16 -3 -5
-23 -11 -45 -15 -21 -3 -42 -11 -46 -17 -6 -8 -10 -8 -15 0 -5 6 -23 15 -40
19 -18 3 -33 10 -33 15 0 5 -13 11 -30 15 -16 4 -30 10 -30 15 0 4 -11 11 -25
14 -14 4 -25 11 -25 16 0 6 -9 10 -20 10 -11 0 -20 7 -20 15 0 9 -9 15 -25 15
-16 0 -25 6 -25 15 0 10 -10 15 -30 15 -20 0 -30 5 -30 15 0 10 -10 15 -30 15
-20 0 -30 5 -30 15 0 8 -7 15 -15 15 -8 0 -15 7 -15 15 0 10 -10 15 -30 15
-20 0 -30 5 -30 15 0 9 -9 15 -24 15 -13 0 -26 7 -30 15 -3 8 -16 15 -30 15
-13 0 -26 7 -30 15 -3 8 -12 15 -21 15 -8 0 -15 4 -15 10 0 5 -11 12 -25 16
-14 3 -25 10 -25 14 0 5 -14 11 -30 15 -17 4 -30 10 -30 15 0 5 -14 11 -30 15
-17 4 -30 11 -30 16 0 5 -7 9 -15 9 -8 0 -15 7 -15 15 0 10 -10 15 -30 15 -20
0 -30 5 -30 15 0 9 -9 15 -25 15 -14 0 -28 7 -31 15 -4 8 -17 15 -30 15 -15 0
-24 6 -24 15 0 8 -9 15 -19 15 -11 0 -26 6 -33 13 -7 8 -26 17 -41 21 -15 3
-27 11 -27 16 0 6 -6 10 -14 10 -8 0 -16 7 -20 15 -3 8 -17 15 -31 15 -16 0
-25 6 -25 15 0 10 -10 15 -30 15 -20 0 -30 5 -30 15 0 9 -9 15 -24 15 -13 0
-26 7 -30 15 -3 8 -12 15 -21 15 -8 0 -15 4 -15 9 0 5 -14 12 -30 16 -17 4
-30 11 -30 16 0 5 -11 11 -25 15 -14 3 -25 10 -25 15 0 5 -7 9 -15 9 -9 0 -18
7 -21 15 -4 8 -17 15 -30 15 -15 0 -24 6 -24 15 0 10 -10 15 -30 15 -19 0 -30
5 -30 14 0 8 -14 17 -30 21 -17 4 -30 10 -30 15 0 4 -11 11 -25 14 -14 4 -25
11 -25 16 0 6 -9 10 -20 10 -11 0 -20 7 -20 15 0 10 -10 15 -30 15 -20 0 -30
5 -30 15 0 9 -9 15 -24 15 -13 0 -26 7 -30 15 -3 8 -17 15 -31 15 -16 0 -25 6
-25 15 0 10 -10 15 -30 15 -20 0 -30 5 -30 15 0 10 -10 15 -30 15 -20 0 -30 5
-30 15 0 8 -7 15 -15 15 -8 0 -15 4 -15 9 0 5 -13 12 -30 16 -17 4 -30 10 -30
15 0 5 -14 11 -30 15 -17 4 -30 11 -30 16 0 5 -11 11 -25 15 -14 3 -25 10 -25
15 0 5 -7 9 -15 9 -9 0 -18 7 -21 15 -4 8 -17 15 -30 15 -14 0 -27 7 -30 15
-4 8 -17 15 -30 15 -15 0 -24 6 -24 15 0 10 -10 15 -30 15 -19 0 -30 5 -30 14
0 8 -13 17 -30 21 -17 4 -30 11 -30 16 0 5 -7 9 -15 9 -8 0 -15 7 -15 15 0 10
-10 15 -30 15 -20 0 -30 5 -30 15 0 10 -10 15 -30 15 -20 0 -30 5 -30 15 0 12
-14 15 -70 15 -56 0 -70 -3 -70 -15 0 -8 -6 -15 -14 -15 -18 0 -22 -53 -18
-238 3 -115 6 -142 18 -142 8 0 14 -7 14 -15 0 -10 10 -15 30 -15 20 0 30 -5
30 -15 0 -9 9 -15 24 -15 13 0 26 -7 30 -15 3 -8 17 -15 31 -15 16 0 25 -6 25
-15 0 -8 9 -15 20 -15 11 0 20 -4 20 -10 0 -5 11 -12 25 -16 14 -3 25 -10 25
-14 0 -5 14 -11 30 -15 17 -4 30 -10 30 -15 0 -5 13 -11 30 -15 17 -4 30 -10
30 -15 0 -4 11 -11 25 -14 14 -4 25 -11 25 -16 0 -6 7 -10 15 -10 9 0 18 -7
21 -15 4 -8 17 -15 30 -15 14 0 27 -6 30 -14 3 -8 16 -17 30 -20 13 -4 24 -11
24 -16 0 -6 9 -10 19 -10 11 0 26 -6 33 -13 7 -7 21 -16 31 -20 9 -3 17 -11
17 -17 0 -5 11 -10 25 -10 16 0 25 -6 25 -15 0 -10 10 -15 30 -15 20 0 30 -5
30 -15 0 -9 9 -15 24 -15 13 0 26 -7 30 -15 3 -8 17 -15 31 -15 16 0 25 -6 25
-15 0 -8 9 -15 20 -15 11 0 20 -4 20 -10 0 -5 12 -13 27 -16 15 -4 34 -13 41
-21 7 -7 20 -13 28 -13 8 0 14 -4 14 -9 0 -5 14 -12 30 -16 17 -4 30 -10 30
-15 0 -5 13 -11 30 -15 17 -4 30 -11 30 -16 0 -5 7 -9 15 -9 8 0 15 -7 15 -15
0 -9 9 -15 25 -15 14 0 28 -6 31 -14 3 -8 19 -18 35 -21 16 -4 29 -10 29 -15
0 -4 11 -11 25 -14 14 -4 25 -11 25 -16 0 -6 9 -10 20 -10 11 0 20 -7 20 -15
0 -9 9 -15 25 -15 16 0 25 -6 25 -15 0 -10 10 -15 30 -15 20 0 30 -5 30 -15 0
-10 10 -15 30 -15 20 0 30 -5 30 -15 0 -8 7 -15 15 -15 8 0 15 -4 15 -9 0 -5
14 -12 30 -16 17 -4 30 -13 30 -21 0 -9 11 -14 30 -14 20 0 30 -5 30 -15 0 -9
9 -15 24 -15 13 0 26 -7 30 -15 3 -8 12 -15 21 -15 8 0 15 -4 15 -9 0 -5 13
-12 30 -16 16 -4 30 -11 30 -16 0 -5 11 -11 25 -15 14 -3 25 -10 25 -14 0 -5
14 -11 30 -15 17 -4 30 -10 30 -15 0 -5 13 -11 30 -15 16 -4 30 -11 30 -16 0
-5 7 -9 15 -9 8 0 15 -7 15 -15 0 -10 10 -15 30 -15 20 0 30 -5 30 -15 0 -9 9
-15 25 -15 14 0 28 -7 31 -15 4 -8 17 -15 30 -15 15 0 24 -6 24 -15 0 -8 9
-15 20 -15 11 0 20 -7 20 -15 0 -9 9 -15 24 -15 13 0 26 -7 30 -15 3 -8 17
-15 31 -15 16 0 25 -6 25 -15 0 -10 10 -15 30 -15 20 0 30 -5 30 -15 0 -9 9
-15 24 -15 13 0 26 -7 30 -15 3 -8 12 -15 21 -15 8 0 15 -4 15 -9 0 -5 14 -12
30 -16 17 -4 30 -10 30 -15 0 -4 11 -11 25 -14 14 -4 25 -11 25 -16 0 -6 7
-10 15 -10 9 0 18 -7 21 -15 4 -8 17 -15 30 -15 15 0 24 -6 24 -15 0 -8 7 -15
15 -15 8 0 15 -7 15 -15 0 -8 7 -15 15 -15 13 0 15 -91 15 -760 0 -669 2 -760
15 -760 8 0 15 -9 15 -20 0 -11 7 -20 15 -20 8 0 15 -4 15 -10 0 -5 20 -10 45
-10 25 0 45 4 45 9 0 5 14 12 30 16 16 4 30 10 30 15 0 4 11 11 25 14 14 4 25
11 25 16 0 6 7 10 15 10 9 0 18 7 21 15 4 8 17 15 30 15 15 0 24 6 24 15 0 10
10 15 30 15 19 0 30 5 30 14 0 8 14 17 30 21 17 4 30 11 30 16 0 5 7 9 15 9 8
0 15 7 15 15 0 10 10 15 30 15 20 0 30 5 30 15 0 10 10 15 30 15 20 0 30 5 30
15 0 9 9 15 25 15 16 0 25 6 25 15 0 10 10 15 30 15 20 0 30 5 30 15 0 8 9 15
20 15 11 0 20 4 20 10 0 5 11 12 25 16 14 3 25 10 25 14 0 5 14 11 30 15 17 4
30 10 30 15 0 4 11 11 25 14 14 4 25 11 25 16 0 6 7 10 15 10 9 0 18 7 21 15
4 8 17 15 30 15 14 0 27 7 30 15 4 8 17 15 30 15 14 0 27 6 30 14 3 8 16 17
30 20 13 4 24 11 24 16 0 6 9 10 19 10 11 0 26 7 35 15 8 8 19 15 25 15 6 0
11 7 11 15 0 10 10 15 30 15 20 0 30 5 30 15 0 10 10 15 30 15 20 0 30 5 30
15 0 9 9 15 24 15 13 0 26 7 30 15 3 8 17 15 31 15 16 0 25 6 25 15 0 8 9 15
20 15 11 0 20 4 20 10 0 5 11 12 25 16 14 3 25 10 25 14 0 5 14 11 30 15 17 4
30 10 30 15 0 5 14 11 30 15 17 4 30 10 30 15 0 4 11 11 25 14 14 4 25 11 25
16 0 6 7 10 15 10 9 0 18 6 21 14 3 8 19 18 35 21 16 4 29 10 29 15 0 4 11 11
25 14 14 4 25 11 25 16 0 6 9 10 19 10 11 0 26 7 35 15 8 8 22 15 30 15 9 0
16 7 16 15 0 9 9 15 25 15 16 0 25 6 25 15 0 10 10 15 30 15 20 0 30 5 30 15
0 10 10 15 30 15 20 0 30 5 30 15 0 8 7 15 15 15 8 0 15 4 15 9 0 5 12 12 26
15 15 4 33 14 41 21 8 8 23 15 34 15 10 0 19 4 19 10 0 5 11 12 24 16 14 3 27
12 30 20 3 8 12 14 21 14 8 0 15 4 15 9 0 5 11 12 25 15 14 4 25 11 25 16 0 6
9 10 19 10 11 0 26 6 33 13 7 8 26 17 41 21 15 3 27 11 27 16 0 6 11 10 25 10
14 0 28 7 31 15 4 8 12 15 19 15 8 0 20 6 27 13 7 8 26 17 41 21 15 3 27 11
27 16 0 6 9 10 20 10 11 0 20 7 20 15 0 9 9 15 25 15 16 0 25 6 25 15 0 8 7
15 15 15 8 0 15 7 15 15 0 8 6 15 14 15 8 0 17 13 21 30 4 17 11 30 16 30 5 0
9 382 9 961 0 840 -2 962 -15 975 -8 9 -15 24 -15 35 0 13 -7 19 -24 19 -13 0
-26 7 -30 15 -3 9 -18 15 -36 15 -20 0 -30 -5 -30 -15z"/>
<path d="M8320 8660 c0 -5 -11 -12 -25 -16 -14 -3 -25 -10 -25 -15 0 -5 -6 -9
-13 -9 -14 0 -47 -35 -47 -50 0 -6 -7 -10 -15 -10 -8 0 -15 -7 -15 -15 0 -8
-7 -15 -15 -15 -12 0 -15 -19 -15 -115 0 -96 3 -115 15 -115 8 0 15 -9 15 -20
0 -11 7 -20 15 -20 8 0 15 -7 15 -15 0 -8 7 -15 15 -15 8 0 15 -4 15 -10 0 -5
11 -12 25 -16 14 -3 25 -10 25 -15 0 -5 7 -9 15 -9 9 0 18 -7 21 -15 4 -8 17
-15 30 -15 14 0 27 -7 30 -15 4 -8 17 -15 30 -15 14 0 27 -7 30 -15 4 -8 17
-15 30 -15 15 0 24 -6 24 -15 0 -10 10 -15 30 -15 20 0 30 -5 30 -15 0 -9 9
-15 25 -15 14 0 28 -7 31 -15 4 -8 12 -15 20 -15 8 0 14 -7 14 -15 0 -8 7 -15
15 -15 8 0 15 -4 15 -10 0 -5 11 -12 25 -16 14 -3 25 -12 25 -20 0 -8 7 -14
15 -14 8 0 15 -7 15 -15 0 -8 7 -15 15 -15 8 0 15 -7 15 -15 0 -8 6 -15 14
-15 8 0 17 -11 20 -25 4 -14 11 -25 16 -25 6 0 10 -7 10 -15 0 -8 7 -15 15
-15 8 0 15 -7 15 -15 0 -8 7 -15 15 -15 10 0 15 -10 15 -30 0 -20 5 -30 15
-30 8 0 15 -6 15 -14 0 -8 7 -16 15 -20 8 -3 15 -16 15 -30 0 -13 7 -26 15
-30 9 -3 15 -18 15 -40 0 -21 6 -36 15 -40 9 -3 15 -18 15 -35 0 -16 5 -31 12
-33 6 -2 13 -32 16 -69 3 -35 10 -67 16 -71 7 -5 12 -69 14 -190 3 -145 7
-185 18 -191 8 -4 14 -15 14 -22 0 -8 4 -15 10 -15 5 0 12 -11 16 -25 4 -18
13 -25 30 -25 15 0 24 -6 24 -15 0 -10 10 -15 30 -15 20 0 30 -5 30 -15 0 -12
13 -15 56 -15 36 0 61 5 70 15 9 8 31 15 50 15 24 0 34 5 34 15 0 8 7 15 15
15 8 0 15 7 15 15 0 8 7 15 15 15 8 0 15 5 15 11 0 6 7 17 15 25 8 9 15 24 15
35 0 10 5 19 10 19 6 0 10 63 10 170 0 94 -4 170 -9 170 -5 0 -12 41 -15 90
-4 50 -11 90 -15 90 -5 0 -11 27 -15 60 -4 33 -11 60 -15 60 -5 0 -11 19 -14
42 -3 24 -11 44 -16 46 -6 2 -11 15 -11 28 0 14 -7 27 -15 30 -9 4 -15 19 -15
35 0 19 -5 29 -15 29 -9 0 -15 9 -15 25 0 14 -7 28 -15 31 -8 4 -15 17 -15 30
0 15 -6 24 -15 24 -10 0 -15 10 -15 30 0 20 -5 30 -15 30 -8 0 -15 7 -15 15 0
8 -7 15 -15 15 -9 0 -15 9 -15 24 0 13 -7 26 -15 30 -8 3 -15 12 -15 21 0 8
-7 15 -15 15 -8 0 -15 5 -15 11 0 6 -13 24 -30 41 -16 16 -30 35 -30 43 0 7
-11 16 -25 19 -15 4 -27 16 -31 31 -3 14 -12 25 -19 25 -8 0 -27 14 -43 30
-17 17 -35 30 -41 30 -6 0 -11 7 -11 15 0 8 -7 15 -15 15 -8 0 -15 7 -15 15 0
8 -7 15 -15 15 -8 0 -15 7 -15 15 0 10 -10 15 -30 15 -20 0 -30 5 -30 15 0 8
-7 15 -15 15 -8 0 -15 7 -15 15 0 10 -10 15 -30 15 -20 0 -30 5 -30 15 0 9 -9
15 -24 15 -13 0 -26 7 -30 15 -3 8 -16 15 -30 15 -13 0 -26 7 -30 15 -3 8 -12
15 -21 15 -8 0 -15 4 -15 9 0 5 -13 12 -30 16 -16 4 -30 11 -30 16 0 5 -11 9
-25 9 -16 0 -25 6 -25 15 0 10 -10 15 -29 15 -16 0 -36 7 -45 15 -17 17 -136
22 -136 5z"/>
<path d="M9278 6302 c-27 -2 -48 -7 -48 -12 0 -5 -9 -12 -20 -15 -30 -9 -89
-71 -96 -100 -3 -14 -10 -25 -15 -25 -5 0 -9 -344 -9 -814 0 -714 2 -815 15
-820 8 -3 15 -14 15 -25 0 -20 62 -91 80 -91 5 0 16 -8 26 -17 24 -24 195 -23
220 1 8 9 19 16 24 16 17 0 80 70 86 95 3 14 10 25 15 25 5 0 9 344 9 815 0
490 -4 815 -9 815 -5 0 -12 14 -16 30 -4 17 -11 30 -16 30 -5 0 -9 7 -9 15 0
8 -7 15 -15 15 -8 0 -15 7 -15 15 0 8 -9 15 -19 15 -11 0 -26 6 -33 13 -15 15
-97 24 -170 19z"/>
<path d="M9230 3855 c0 -9 -9 -15 -25 -15 -16 0 -25 -6 -25 -15 0 -8 -7 -15
-15 -15 -8 0 -15 -7 -15 -15 0 -8 -7 -15 -15 -15 -9 0 -15 -9 -15 -25 0 -13
-7 -28 -15 -32 -12 -7 -15 -56 -17 -292 -2 -217 -6 -285 -15 -289 -8 -2 -13
-21 -13 -48 0 -30 -5 -46 -15 -50 -10 -4 -15 -20 -15 -45 0 -28 -4 -39 -15
-39 -10 0 -15 -10 -15 -30 0 -20 -5 -30 -15 -30 -10 0 -15 -10 -15 -30 0 -20
-5 -30 -15 -30 -9 0 -15 -9 -15 -25 0 -16 -6 -25 -15 -25 -8 0 -15 -9 -15 -20
0 -11 -7 -20 -15 -20 -9 0 -15 -9 -15 -25 0 -16 -6 -25 -15 -25 -8 0 -15 -7
-15 -15 0 -8 -7 -15 -15 -15 -8 0 -15 -7 -15 -15 0 -8 -7 -15 -15 -15 -8 0
-15 -7 -15 -15 0 -8 -7 -15 -15 -15 -8 0 -15 -7 -15 -15 0 -8 -7 -15 -15 -15
-8 0 -15 -7 -15 -15 0 -9 -9 -15 -25 -15 -16 0 -25 -6 -25 -15 0 -8 -7 -15
-15 -15 -8 0 -15 -7 -15 -15 0 -8 -9 -15 -20 -15 -11 0 -20 -4 -20 -10 0 -5
-11 -12 -25 -16 -14 -3 -25 -12 -25 -20 0 -9 -11 -14 -30 -14 -20 0 -30 -5
-30 -15 0 -9 -9 -15 -24 -15 -13 0 -26 -7 -30 -15 -3 -8 -12 -15 -21 -15 -8 0
-15 -4 -15 -9 0 -5 -13 -12 -30 -16 -16 -4 -30 -10 -30 -15 0 -4 -11 -11 -25
-14 -14 -4 -25 -10 -25 -15 0 -5 -13 -12 -30 -16 -16 -4 -30 -11 -30 -16 0 -5
-7 -9 -15 -9 -9 0 -18 -7 -21 -15 -4 -8 -17 -15 -30 -15 -15 0 -24 -6 -24 -15
0 -10 -10 -15 -30 -15 -20 0 -30 -5 -30 -15 0 -10 -10 -15 -30 -15 -20 0 -30
-5 -30 -15 0 -9 -9 -15 -25 -15 -16 0 -25 -6 -25 -15 0 -10 -10 -15 -30 -15
-20 0 -30 -5 -30 -15 0 -8 -9 -15 -20 -15 -11 0 -20 -4 -20 -10 0 -5 -11 -12
-25 -16 -14 -3 -25 -10 -25 -14 0 -5 -13 -11 -29 -15 -16 -3 -32 -13 -35 -21
-3 -8 -17 -14 -31 -14 -16 0 -25 -6 -25 -15 0 -8 -7 -15 -15 -15 -8 0 -15 -4
-15 -9 0 -5 -13 -12 -30 -16 -16 -4 -30 -10 -30 -15 0 -5 -13 -11 -30 -15 -16
-4 -30 -10 -30 -15 0 -4 -11 -11 -25 -14 -14 -4 -25 -10 -25 -15 0 -5 -13 -12
-30 -16 -16 -4 -30 -11 -30 -16 0 -5 -7 -9 -15 -9 -9 0 -18 -7 -21 -15 -4 -8
-17 -15 -30 -15 -15 0 -24 -6 -24 -15 0 -10 -10 -15 -30 -15 -20 0 -30 -5 -30
-15 0 -9 -9 -15 -24 -15 -13 0 -26 -7 -30 -15 -3 -8 -10 -15 -16 -15 -6 0 -18
-7 -26 -15 -9 -8 -24 -15 -35 -15 -10 0 -19 -7 -19 -15 0 -10 -10 -15 -30 -15
-20 0 -30 -5 -30 -15 0 -9 -9 -15 -24 -15 -13 0 -26 -7 -30 -15 -3 -8 -12 -15
-21 -15 -8 0 -15 -4 -15 -10 0 -5 -11 -12 -25 -16 -14 -3 -25 -10 -25 -14 0
-5 -13 -11 -30 -15 -16 -4 -30 -10 -30 -15 0 -5 -13 -11 -30 -15 -16 -4 -30
-10 -30 -15 0 -4 -11 -11 -25 -14 -14 -4 -25 -11 -25 -16 0 -6 -7 -10 -15 -10
-9 0 -18 -7 -21 -15 -4 -8 -17 -15 -30 -15 -14 0 -27 -7 -30 -15 -4 -8 -17
-15 -30 -15 -15 0 -24 -6 -24 -15 0 -10 -10 -15 -30 -15 -20 0 -30 -5 -30 -15
0 -8 -9 -15 -20 -15 -11 0 -20 -7 -20 -15 0 -9 -9 -15 -25 -15 -16 0 -25 -6
-25 -15 0 -10 -10 -15 -30 -15 -20 0 -30 -5 -30 -15 0 -9 -9 -15 -24 -15 -13
0 -26 -7 -30 -15 -3 -8 -12 -15 -21 -15 -8 0 -15 -4 -15 -9 0 -5 -12 -12 -26
-15 -15 -4 -33 -14 -41 -21 -8 -8 -23 -15 -34 -15 -10 0 -19 -4 -19 -10 0 -5
-11 -12 -25 -16 -14 -3 -25 -10 -25 -14 0 -5 -13 -11 -30 -15 -16 -4 -30 -10
-30 -15 0 -5 -13 -11 -30 -15 -16 -4 -30 -11 -30 -16 0 -5 -7 -9 -15 -9 -8 0
-15 -7 -15 -15 0 -10 -10 -15 -30 -15 -20 0 -30 -5 -30 -15 0 -9 -9 -15 -25
-15 -14 0 -28 -7 -31 -15 -4 -8 -17 -15 -30 -15 -15 0 -24 -6 -24 -15 0 -8 -9
-15 -20 -15 -11 0 -20 -7 -20 -15 0 -9 -9 -15 -24 -15 -13 0 -26 -7 -30 -15
-3 -8 -17 -15 -31 -15 -16 0 -25 -6 -25 -15 0 -10 -10 -15 -30 -15 -20 0 -30
-5 -30 -15 0 -10 -10 -15 -30 -15 -20 0 -30 -5 -30 -15 0 -8 -7 -15 -15 -15
-8 0 -15 -4 -15 -9 0 -5 -13 -12 -30 -16 -16 -4 -30 -11 -30 -16 0 -5 -11 -11
-25 -15 -14 -3 -25 -10 -25 -14 0 -5 -14 -11 -30 -15 -16 -4 -30 -11 -30 -16
0 -5 -7 -9 -15 -9 -9 0 -18 -7 -21 -15 -4 -8 -17 -15 -30 -15 -14 0 -24 -6
-24 -14 0 -8 -16 -16 -42 -19 -24 -3 -44 -11 -46 -16 -2 -6 -17 -11 -33 -11
-19 0 -29 -5 -29 -15 0 -12 -14 -15 -70 -15 -54 0 -72 -4 -76 -15 -5 -13 -36
-15 -189 -15 -153 0 -184 2 -189 15 -4 11 -22 15 -76 15 -56 0 -70 3 -70 15 0
11 -12 15 -45 15 -33 0 -45 4 -45 15 0 10 -10 15 -30 15 -16 0 -30 4 -30 9 0
5 -13 12 -30 16 -17 4 -30 10 -30 15 0 5 -13 11 -30 15 -16 4 -30 10 -30 15 0
5 -13 11 -30 15 -16 4 -30 10 -30 15 0 4 -11 11 -25 14 -14 4 -25 10 -25 15 0
5 -13 12 -30 16 -16 4 -30 11 -30 16 0 5 -7 9 -15 9 -8 0 -15 7 -15 15 0 10
-10 15 -30 15 -20 0 -30 5 -30 15 0 10 -10 15 -30 15 -20 0 -30 5 -30 15 0 9
-9 15 -25 15 -16 0 -25 6 -25 15 0 8 -9 15 -20 15 -11 0 -20 7 -20 15 0 10
-10 15 -30 15 -20 0 -30 5 -30 15 0 9 -9 15 -24 15 -13 0 -26 7 -30 15 -3 8
-17 15 -31 15 -16 0 -25 6 -25 15 0 10 -10 15 -30 15 -20 0 -30 5 -30 15 0 8
-7 15 -15 15 -8 0 -15 4 -15 9 0 5 -13 12 -30 16 -16 4 -30 10 -30 15 0 5 -13
11 -30 15 -16 4 -30 10 -30 15 0 4 -11 11 -25 14 -14 4 -25 10 -25 15 0 5 -13
12 -30 16 -16 4 -30 11 -30 16 0 5 -7 9 -15 9 -9 0 -18 7 -21 15 -4 8 -17 15
-30 15 -15 0 -24 6 -24 15 0 8 -9 15 -19 15 -11 0 -26 6 -33 14 -8 7 -24 17
-36 20 -12 4 -22 12 -22 17 0 5 -9 9 -20 9 -11 0 -20 7 -20 15 0 10 -10 15
-30 15 -20 0 -30 5 -30 15 0 12 -18 15 -100 15 -82 0 -100 -3 -100 -15 0 -10
-10 -15 -30 -15 -20 0 -30 -5 -30 -15 0 -8 -7 -15 -15 -15 -8 0 -15 -7 -15
-15 0 -8 -7 -15 -15 -15 -9 0 -15 -9 -15 -24 0 -13 -7 -26 -15 -30 -22 -8 -22
-206 0 -206 10 0 15 -10 15 -30 0 -20 5 -30 15 -30 8 0 15 -7 15 -15 0 -10 10
-15 30 -15 20 0 30 -5 30 -15 0 -9 9 -15 24 -15 13 0 26 -7 30 -15 3 -8 12
-15 21 -15 8 0 15 -4 15 -10 0 -5 12 -13 27 -16 15 -4 34 -13 41 -21 7 -7 22
-13 33 -13 10 0 19 -4 19 -10 0 -5 11 -12 25 -16 14 -3 25 -10 25 -14 0 -5 13
-11 30 -15 16 -4 30 -10 30 -15 0 -5 13 -11 30 -15 16 -4 30 -10 30 -15 0 -4
11 -11 25 -14 14 -4 25 -11 25 -16 0 -6 9 -10 20 -10 11 0 20 -7 20 -15 0 -9
9 -15 25 -15 14 0 28 -7 31 -15 4 -8 17 -15 30 -15 15 0 24 -6 24 -15 0 -8 9
-15 19 -15 11 0 26 -6 33 -13 7 -7 21 -16 31 -20 9 -3 17 -11 17 -17 0 -5 11
-10 25 -10 16 0 25 -6 25 -15 0 -10 10 -15 30 -15 20 0 30 -5 30 -15 0 -9 9
-15 25 -15 14 0 25 -5 25 -10 0 -6 8 -14 18 -17 9 -4 23 -13 30 -20 7 -7 22
-13 33 -13 10 0 19 -4 19 -10 0 -5 11 -12 25 -16 14 -3 25 -10 25 -15 0 -5 7
-9 15 -9 9 0 18 -7 21 -15 4 -8 17 -15 30 -15 15 0 24 -6 24 -15 0 -10 10 -15
30 -15 20 0 30 -5 30 -15 0 -10 10 -15 30 -15 20 0 30 -5 30 -15 0 -9 9 -15
25 -15 14 0 28 -7 31 -15 4 -8 17 -15 30 -15 14 0 27 -7 30 -15 4 -9 19 -15
35 -15 19 0 29 -5 29 -15 0 -11 11 -15 40 -15 29 0 40 -4 40 -15 0 -11 12 -15
45 -15 33 0 45 -4 45 -15 0 -12 13 -15 60 -15 47 0 60 -3 60 -15 0 -12 18 -15
99 -15 71 0 101 -4 103 -12 6 -18 290 -18 295 0 3 8 33 12 104 12 81 0 99 3
99 15 0 12 13 15 60 15 47 0 60 3 60 15 0 11 11 15 41 15 23 0 47 7 55 15 9 8
31 15 50 15 24 0 34 5 34 15 0 9 10 15 26 15 14 0 32 7 40 15 9 8 29 15 45 15
19 0 29 5 29 15 0 8 9 15 20 15 11 0 20 4 20 10 0 5 11 12 25 16 14 3 25 10
25 14 0 5 14 11 30 15 17 4 30 11 30 16 0 5 11 11 25 15 14 3 25 10 25 14 0 5
14 11 30 15 17 4 30 11 30 16 0 5 7 9 15 9 9 0 18 7 21 15 4 8 17 15 30 15 14
0 27 7 30 15 4 8 17 15 30 15 15 0 24 6 24 15 0 9 9 15 25 15 14 0 28 7 31 15
4 8 12 15 20 15 8 0 14 7 14 15 0 10 10 15 30 15 20 0 30 5 30 15 0 9 9 15 24
15 13 0 26 7 30 15 3 8 17 15 31 15 16 0 25 6 25 15 0 8 9 15 20 15 11 0 20 4
20 10 0 5 11 12 25 16 14 3 25 10 25 14 0 5 14 11 30 15 17 4 30 10 30 15 0 5
14 11 30 15 17 4 30 13 30 21 0 8 10 14 24 14 13 0 26 7 30 15 3 8 12 15 21
15 8 0 15 4 15 9 0 5 14 12 30 16 17 4 30 10 30 15 0 4 11 11 25 14 14 4 25
11 25 16 0 6 9 10 19 10 11 0 26 7 34 15 8 7 26 17 41 21 14 3 26 10 26 15 0
5 7 9 15 9 8 0 15 7 15 15 0 10 10 15 30 15 20 0 30 5 30 15 0 10 10 15 30 15
20 0 30 5 30 15 0 9 9 15 24 15 13 0 26 7 30 15 3 8 12 15 21 15 8 0 15 4 15
10 0 5 12 13 27 16 15 4 34 13 41 21 7 7 19 13 27 13 7 0 15 7 19 15 3 8 16
15 30 15 13 0 26 7 30 15 3 8 15 15 26 15 12 0 31 11 43 24 13 14 35 28 50 31
15 4 27 11 27 15 0 5 14 11 30 15 17 4 30 10 30 15 0 4 11 11 25 14 14 4 25
11 25 16 0 6 9 10 19 10 11 0 26 6 33 13 7 7 21 16 31 20 9 3 17 11 17 17 0 5
11 10 25 10 16 0 25 6 25 15 0 10 10 15 30 15 20 0 30 5 30 15 0 10 10 15 30
15 20 0 30 5 30 15 0 8 7 15 15 15 8 0 15 4 15 9 0 5 12 12 26 15 15 4 33 14
41 21 8 8 23 15 34 15 10 0 19 7 19 15 0 9 9 15 24 15 13 0 26 7 30 15 3 8 16
15 30 15 13 0 26 7 30 15 3 8 12 15 21 15 8 0 15 4 15 10 0 5 11 12 25 16 14
3 25 10 25 14 0 5 14 11 30 15 17 4 30 10 30 15 0 4 11 11 25 14 14 4 25 11
25 16 0 6 9 10 20 10 11 0 20 7 20 15 0 9 9 15 25 15 14 0 28 7 31 15 4 8 17
15 30 15 15 0 24 6 24 15 0 10 10 15 30 15 20 0 30 5 30 15 0 10 10 15 30 15
20 0 30 5 30 15 0 8 7 15 15 15 8 0 15 4 15 9 0 5 14 12 30 16 17 4 30 13 30
21 0 9 11 14 30 14 20 0 30 5 30 15 0 9 9 15 24 15 13 0 26 7 30 15 3 8 16 15
30 15 13 0 26 7 30 15 3 8 16 15 30 15 13 0 26 7 30 15 3 8 12 15 21 15 8 0
15 4 15 9 0 5 11 12 25 15 14 4 25 10 25 15 0 5 14 12 30 16 17 4 30 11 30 16
0 5 7 9 15 9 8 0 15 7 15 15 0 8 7 15 15 15 8 0 15 7 15 15 0 9 9 15 25 15 16
0 25 6 25 15 0 8 9 15 20 15 11 0 20 7 20 15 0 8 7 15 15 15 8 0 15 7 15 15 0
8 7 15 15 15 8 0 15 5 15 11 0 6 18 29 40 50 22 22 40 43 40 49 0 5 7 10 15
10 8 0 15 7 15 15 0 8 7 15 15 15 9 0 15 9 15 25 0 16 6 25 15 25 8 0 15 7 15
15 0 9 7 18 15 21 8 4 15 17 15 30 0 15 6 24 15 24 8 0 15 7 15 15 0 8 7 15
15 15 10 0 15 10 15 30 0 17 4 30 10 30 5 0 13 12 16 27 4 15 13 34 21 41 7 7
13 20 13 28 0 9 7 22 15 30 8 9 15 28 15 44 0 16 7 30 15 34 9 3 15 18 15 36
0 16 4 30 9 30 5 0 12 24 16 53 4 28 11 54 16 57 5 3 11 38 15 78 4 40 11 72
15 72 5 0 9 133 9 295 0 186 -4 295 -10 295 -5 0 -12 11 -16 25 -3 14 -10 25
-15 25 -5 0 -9 7 -9 15 0 8 -9 15 -20 15 -11 0 -20 7 -20 15 0 9 -9 15 -25 15
-16 0 -25 6 -25 15 0 12 -18 15 -105 15 -87 0 -105 -3 -105 -15z"/>
<path d="M150 3795 c0 -10 -10 -15 -30 -15 -20 0 -30 -5 -30 -15 0 -8 -7 -15
-15 -15 -8 0 -15 -7 -15 -15 0 -8 -4 -15 -9 -15 -5 0 -13 -10 -17 -22 -4 -13
-12 -26 -18 -30 -16 -10 -16 -576 0 -586 6 -4 14 -32 16 -62 3 -30 11 -56 17
-58 6 -2 11 -20 11 -41 0 -20 7 -46 15 -57 8 -10 15 -32 15 -47 0 -15 7 -30
15 -33 8 -4 15 -18 15 -34 0 -16 7 -35 15 -44 8 -8 15 -26 15 -40 0 -16 6 -26
15 -26 10 0 15 -10 15 -30 0 -20 5 -30 15 -30 8 0 15 -9 15 -20 0 -11 7 -23
15 -26 8 -4 15 -15 15 -25 0 -10 7 -19 15 -19 9 0 15 -9 15 -25 0 -16 6 -25
15 -25 8 0 15 -7 15 -15 0 -8 5 -15 10 -15 6 0 14 -8 17 -17 4 -10 19 -31 35
-46 15 -16 28 -35 28 -43 0 -8 7 -14 15 -14 8 0 15 -7 15 -15 0 -8 7 -15 15
-15 8 0 15 -7 15 -15 0 -8 7 -15 15 -15 8 0 15 -7 15 -15 0 -8 7 -15 15 -15 8
0 15 -7 15 -15 0 -9 9 -15 25 -15 16 0 25 -6 25 -15 0 -8 7 -15 15 -15 8 0 15
-7 15 -15 0 -8 7 -15 15 -15 8 0 15 -7 15 -15 0 -9 9 -15 24 -15 13 0 26 -7
30 -15 3 -8 12 -15 21 -15 8 0 15 -4 15 -10 0 -5 11 -12 25 -16 14 -3 25 -10
25 -14 0 -5 13 -11 29 -15 16 -3 32 -13 35 -21 3 -8 12 -14 21 -14 8 0 15 -4
15 -9 0 -5 11 -12 25 -15 14 -4 25 -11 25 -16 0 -6 9 -10 19 -10 11 0 26 -7
34 -15 8 -7 26 -17 41 -21 14 -3 26 -10 26 -14 0 -5 14 -11 30 -15 17 -4 30
-10 30 -15 0 -4 11 -11 25 -14 14 -4 25 -11 25 -16 0 -6 9 -10 20 -10 11 0 20
-7 20 -15 0 -10 10 -15 30 -15 20 0 30 -5 30 -15 0 -10 10 -15 30 -15 20 0 30
-5 30 -15 0 -9 9 -15 25 -15 16 0 25 -6 25 -15 0 -10 10 -15 30 -15 20 0 30
-5 30 -15 0 -10 10 -15 30 -15 20 0 30 -5 30 -15 0 -8 7 -15 15 -15 8 0 15 -4
15 -9 0 -5 14 -12 30 -16 17 -4 30 -10 30 -15 0 -5 14 -11 30 -15 17 -4 30
-11 30 -16 0 -5 11 -11 25 -15 14 -3 25 -10 25 -15 0 -5 7 -9 15 -9 9 0 18 -7
21 -15 4 -8 17 -15 30 -15 14 0 27 -7 30 -15 4 -8 17 -15 30 -15 14 0 24 -6
24 -14 0 -8 14 -17 30 -21 17 -4 30 -11 30 -16 0 -5 7 -9 15 -9 8 0 15 -7 15
-15 0 -10 10 -15 30 -15 20 0 30 -5 30 -15 0 -22 168 -22 176 0 4 8 17 15 30
15 15 0 24 6 24 15 0 8 7 15 15 15 8 0 15 7 15 15 0 8 7 15 15 15 10 0 15 10
15 30 0 20 5 30 15 30 12 0 15 18 15 100 0 82 -3 100 -15 100 -10 0 -15 10
-15 30 0 20 -5 30 -15 30 -8 0 -15 7 -15 15 0 8 -7 15 -15 15 -8 0 -15 7 -15
15 0 10 -10 15 -30 15 -20 0 -30 5 -30 15 0 9 -9 15 -24 15 -13 0 -26 7 -30
15 -3 8 -12 15 -21 15 -8 0 -15 4 -15 10 0 5 -12 13 -27 16 -15 4 -34 13 -41
21 -7 7 -20 13 -28 13 -8 0 -14 4 -14 9 0 5 -13 12 -30 16 -16 4 -30 10 -30
15 0 5 -13 11 -30 15 -16 4 -30 10 -30 15 0 4 -11 11 -25 14 -14 4 -25 11 -25
16 0 6 -7 10 -15 10 -9 0 -18 7 -21 15 -4 8 -17 15 -30 15 -14 0 -27 7 -30 15
-4 8 -17 15 -30 15 -15 0 -24 6 -24 15 0 8 -9 15 -19 15 -11 0 -26 7 -35 15
-8 8 -19 15 -24 15 -6 0 -12 7 -16 15 -3 8 -17 15 -31 15 -16 0 -25 6 -25 15
0 10 -10 15 -30 15 -18 0 -30 5 -30 13 0 7 -20 21 -45 32 -25 11 -45 23 -45
27 0 3 -13 9 -30 13 -16 4 -30 11 -30 16 0 5 -11 11 -25 15 -14 3 -25 10 -25
14 0 5 -13 11 -30 15 -16 4 -30 11 -30 16 0 5 -6 9 -14 9 -7 0 -19 7 -26 15
-7 8 -21 15 -31 15 -11 0 -19 7 -19 15 0 9 -9 15 -25 15 -14 0 -28 7 -31 15
-4 8 -12 15 -20 15 -8 0 -14 7 -14 15 0 9 -9 15 -25 15 -16 0 -25 6 -25 15 0
8 -9 15 -20 15 -11 0 -20 7 -20 15 0 8 -7 15 -15 15 -8 0 -15 7 -15 15 0 8 -7
15 -15 15 -8 0 -15 7 -15 15 0 8 -4 15 -10 15 -13 0 -50 32 -50 44 0 5 -11 19
-25 32 -14 13 -25 28 -25 34 0 5 -6 10 -14 10 -8 0 -17 11 -20 25 -4 14 -11
25 -16 25 -6 0 -10 7 -10 15 0 9 -7 18 -15 21 -8 4 -15 17 -15 30 0 15 -6 24
-15 24 -10 0 -15 10 -15 30 0 20 -5 30 -15 30 -10 0 -15 10 -15 34 0 19 -7 41
-15 50 -8 8 -15 32 -15 55 0 28 -4 41 -14 41 -17 0 -27 191 -19 372 4 93 3
128 -5 128 -7 0 -15 18 -18 40 -4 24 -12 40 -20 40 -8 0 -14 5 -14 10 0 15
-35 47 -59 55 -12 3 -21 11 -21 16 0 5 -9 9 -19 9 -11 0 -26 7 -35 15 -10 11
-36 15 -85 15 -56 0 -71 -3 -71 -15z"/>
</g>
</svg>
